<?xml version="1.0" encoding="UTF-8"?>
<svg width="423px" height="356px" viewBox="0 0 423 356" version="1.1" xmlns="http://www.w3.org/2000/svg" xmlns:xlink="http://www.w3.org/1999/xlink">
    <!-- Generator: Sketch 55.1 (78136) - https://sketchapp.com -->
    <title>Group 8</title>
    <desc>Created with Sketch.</desc>
    <g id="Symbols" stroke="none" stroke-width="1" fill="none" fill-rule="evenodd">
        <g id="carte" transform="translate(-841.000000, -308.000000)" fill="#E7375C" fill-rule="nonzero">
            <g id="Group-8" transform="translate(841.536425, 308.508788)">
                <polygon id="Path" points="294.48377 126.595064 277.035752 106.626776 273.158414 93.8315632 266.760808 89.3726253 242.721316 83.944353 233.027973 91.5051608 227.0181 91.6990277 215.773822 86.6584892 215.386088 86.4646223 214.998355 86.2707554 208.019147 80.2608826 193.091399 80.2608826 190.377263 86.0768886 178.745251 87.8216904 178.16365 87.8216904 170.796709 72.1184742 170.602842 72.1184742 166.725505 74.8326103 162.266567 80.6486163 149.859088 76.1896784 145.787883 80.4547494 147.532685 99.4537023 140.553478 110.504114 143.461481 116.126253 134.543605 124.074794 139.19641 143.655348 137.063874 152.767091 142.686013 155.481227 141.522812 164.011369 134.737472 166.337771 132.217203 179.132984 139.19641 189.214061 140.359611 197.93807 147.726552 209.376215 184.36739 231.864772 179.326851 237.099177 207.049813 257.842932 203.172476 276.454151 215.192221 286.341361 215.773822 293.320568 221.589828 290.994166 224.303964 296.422438 224.303964 296.616305 241.945849 284.208826 257.261331 293.320568 269.668811 289.830965 280.331488 297.779506 291.3819 292.932835 309.605385 307.278983 311.737921 305.921915 317.747794 300.687509 317.747794 287.310696 328.022737 270.250411 337.13448 240.782648 339.460883 238.843979 328.216604 233.803441 331.124607 212.090352 326.859536 209.182349 334.420344 209.957816 339.267016 206.080479 345.858489 177.000449 336.359013 169.827375 330.155273 168.85804 327.053403 174.286313 322.012865 170.796709 325.696335 165.368437 313.870456 159.940165 324.339267 136.482274 326.277936 142.492147 345.858489 152.767091 365.439043 151.991623 368.540912 146.369484 371.448915 137.257741 371.061182 137.257741 353.031563 120.779058 339.073149 129.696933 324.1454 127.176664 318.523261 129.8908 313.676589 121.360658 307.085116 118.258788 300.881376 121.748392 300.299776 128.145999"></polygon>
                <polygon id="Path" points="313.870456 159.940165 325.696335 165.368437 322.012865 170.796709 327.053403 174.286313 330.155273 168.85804 336.359013 169.827375 345.858489 177.000449 339.267016 206.080479 334.420344 209.957816 326.859536 209.182349 331.124607 212.090352 328.216604 233.803441 339.460883 238.843979 337.13448 240.782648 328.022737 270.250411 317.747794 287.310696 317.747794 300.687509 311.737921 305.921915 328.216604 316.778459 329.185939 336.55288 335.195812 336.165146 340.042483 347.215557 339.073149 347.409424 345.470755 348.766492 343.91982 355.357966 360.398504 355.357966 366.21451 353.22543 367.183844 346.633957 373.581451 346.246223 373.969185 339.460883 378.815856 335.195812 372.612117 318.329394 378.428123 284.790426 374.356918 262.30187 387.152132 231.864772 390.254001 197.744203 413.130292 168.082573 421.854301 144.818549 403.049215 138.227076 371.448915 137.257741 371.448915 137.257741 368.540912 146.369484 365.439043 151.991623 345.858489 152.767091 326.277936 142.492147 324.339267 136.482274"></polygon>
                <polygon id="Path" points="69.2104712 29.4677636 70.955273 41.8752431 68.04727 49.4360509 70.955273 56.2213912 60.0987285 71.9246073 54.0888556 72.5062079 54.6704562 103.524907 52.5379207 109.728646 40.9059088 105.851309 23.6517577 114.381451 20.9376215 120.197457 27.9168287 137.645475 16.0909499 142.492147 19.5805535 147.920419 17.6418848 153.736425 23.0701571 156.644428 6.39760658 178.939117 5.42827225 183.204188 3.97903932e-13 188.05086 7.56080778 206.080479 13.1829469 209.763949 6.59147345 220.620494 0.193866866 222.171429 1.1632012 240.782648 9.11174271 243.884518 18.805086 256.09813 24.2333583 274.127749 28.4984293 269.281077 36.4469708 278.39282 47.3035153 302.238444 74.6387435 298.748841 81.03635 301.656844 85.8830217 297.391773 99.2598355 295.453104 109.534779 286.922962 117.871055 288.086163 117.871055 287.892296 125.431862 289.443231 126.595064 295.453104 132.41107 297.585639 131.635602 303.789379 138.033209 304.564847 141.716679 309.217651 144.043082 316.002992 138.033209 321.431264 142.87988 331.706208 163.042034 336.165146 169.633508 339.460883 169.633508 345.664622 180.102319 341.593418 182.622588 336.165146 196.968736 327.635004 201.815408 331.512341 208.406881 329.379806 208.988482 311.15632 213.641286 305.921915 219.845026 306.697382 224.691698 299.718175 224.303964 296.616305 224.303964 296.422438 221.589828 290.994166 215.773822 293.320568 215.192221 286.341361 203.172476 276.454151 207.049813 257.842932 179.326851 237.099177 184.36739 231.864772 147.726552 209.376215 140.359611 197.93807 139.19641 189.214061 132.217203 179.132984 134.737472 166.337771 141.522812 164.011369 142.686013 155.481227 137.063874 152.767091 139.19641 143.655348 134.543605 124.074794 143.461481 116.126253 140.553478 110.504114 147.532685 99.4537023 145.787883 80.4547494 149.859088 76.1896784 162.266567 80.6486163 166.725505 74.8326103 170.602842 72.1184742 163.623635 72.7000748 163.817502 65.7208676 150.634555 62.6189978 135.900673 49.6299177 123.10546 50.0176515 125.044129 35.8653702 118.840389 23.4578908 118.840389 14.3461481 124.656395 3.48960359 118.646522 0 109.922513 9.30560957 106.045176 23.2640239 87.0462229 31.794166 75.4142109 27.9168287"></polygon>
            </g>
        </g>
    </g>
</svg>