<?xml version="1.0" encoding="UTF-8"?>
<svg width="469px" height="683px" viewBox="0 0 469 683" version="1.1" xmlns="http://www.w3.org/2000/svg" xmlns:xlink="http://www.w3.org/1999/xlink">
    <!-- Generator: Sketch 55.1 (78136) - https://sketchapp.com -->
    <title>image-arbre</title>
    <desc>Created with Sketch.</desc>
    <defs>
        <rect id="path-1" x="0" y="0" width="211.907293" height="435.634116" rx="36.4499981"></rect>
        <filter x="-34.0%" y="-9.2%" width="158.5%" height="128.5%" filterUnits="objectBoundingBox" id="filter-2">
            <feOffset dx="-10" dy="22" in="SourceAlpha" result="shadowOffsetOuter1"></feOffset>
            <feGaussianBlur stdDeviation="17" in="shadowOffsetOuter1" result="shadowBlurOuter1"></feGaussianBlur>
            <feColorMatrix values="0 0 0 0 0   0 0 0 0 0   0 0 0 0 0  0 0 0 0.1 0" type="matrix" in="shadowBlurOuter1"></feColorMatrix>
        </filter>
        <rect id="path-3" x="0" y="0" width="269.31644" height="425.50309"></rect>
    </defs>
    <g id="Page-1" stroke="none" stroke-width="1" fill="none" fill-rule="evenodd">
        <g id="arbre" transform="translate(-1081.000000, -213.000000)">
            <g id="image-arbre" transform="translate(1123.000000, 213.000000)">
                <g id="Background" opacity="0.2" transform="translate(37.991347, 0.000000)">
                    <circle id="Oval" fill="#D0E8EB" cx="194.177998" cy="247.365884" r="194.177998"></circle>
                    <circle id="Oval" fill="#E7375C" cx="312.3733" cy="648.385661" r="34.6143387"></circle>
                    <polygon id="Polygon" fill="#E7375C" points="162.096415 0 203.464771 41.368356 162.096415 82.736712 120.728059 41.368356"></polygon>
                    <polygon id="Polygon" fill="#D0E8EB" points="47.2781211 582.533993 67.5401731 602.796044 47.2781211 623.058096 27.0160692 602.796044"></polygon>
                    <polygon id="Polygon" fill="#E7375C" points="340.233622 53.1878863 350.364648 63.3189122 340.233622 73.4499382 330.102596 63.3189122"></polygon>
                </g>
                <g id="Group-4" transform="translate(0.000000, 89.334981)">
                    <g id="Group" transform="translate(150.520979, 223.835396) rotate(-2.000000) translate(-150.520979, -223.835396) translate(7.520979, 5.835396)">
                        <g id="base">
                            <use fill="black" fill-opacity="1" filter="url(#filter-2)" xlink:href="#path-1"></use>
                            <use fill="#F2F2F2" fill-rule="evenodd" xlink:href="#path-1"></use>
                        </g>
                        <path d="M54.0321384,9.28677379 L54.0321384,10.5622228 C54.0321384,18.1671834 60.1971771,24.3322221 67.8021377,24.3322221 L144.074443,24.3322221 C151.679403,24.3322221 157.844442,18.1671834 157.844442,10.5622228 L157.844442,9.28677379 L177.707636,9.28677379 C191.128154,9.28677379 202.007634,20.1662538 202.007634,33.5867725 L202.007634,401.472139 C202.007634,414.892658 191.128154,425.772138 177.707636,425.772138 L33.5867725,425.772138 C20.1662538,425.772138 9.28677379,414.892658 9.28677379,401.472139 L9.28677379,33.5867725 C9.28677379,20.1662538 20.1662538,9.28677379 33.5867725,9.28677379 L54.0321384,9.28677379 Z" id="Screen" fill="#E7375C" opacity="0.201288132"></path>
                        <g id="Illustration" transform="translate(16.040791, 0.000000)">
                            <mask id="mask-4" fill="white">
                                <use xlink:href="#path-3"></use>
                            </mask>
                            <g id="Mask"></g>
                            <g id="Group-2" mask="url(#mask-4)">
                                <g transform="translate(80.762303, 246.845436) rotate(14.000000) translate(-80.762303, -246.845436) translate(-150.984916, -66.794242)">
                                    <g id="Head/Front/Pony" transform="translate(318.581940, 115.876351) rotate(32.000000) translate(-318.581940, -115.876351) translate(220.384038, 40.884602)">
                                        <g id="Head" stroke-width="1" transform="translate(77.823529, 44.711538)" fill="#B28B67">
                                            <path d="M11.9073947,49.7453751 C5.26658392,41.9442921 0.771944262,32.3839574 1.52300119,21.6713277 C3.68700532,-9.19474121 46.6199412,-2.40459931 54.9712861,13.1739417 C63.322631,28.7524827 62.3302741,68.268744 51.5369049,71.0530638 C47.2325242,72.1634467 38.0629135,69.4434533 28.730389,63.8139029 L34.5882353,105.288462 L0,105.288462 L11.9073947,49.7453751 Z"></path>
                                        </g>
                                        <path d="M101.701981,92.2865316 C97.4128987,100.52593 91.4808508,106.730769 85.5544875,106.730769 C74.297868,106.730769 66.2941176,91.6691531 66.2941176,75.4753395 C66.2941176,74.9063735 66.3053824,74.3411925 66.3276085,73.780233 C54.4201127,81.9578447 45.2431522,98.0769231 29.487545,98.0769231 C8.0521832,98.0769231 -0.460692595,54.8076923 29.487545,54.8076923 C49.854622,54.8076923 59.8730656,57.77954 68.5070067,62.1742022 C70.2098629,57.3698224 72.8064179,53.3305005 75.9814875,50.5096617 C76.7454457,49.6489129 77.9168203,48.8253842 79.4280846,48.0619482 C80.351436,47.5564185 81.3069236,47.1446639 82.288929,46.8347709 C87.4959755,44.9196941 95.0381666,43.5689325 103.462928,43.2745025 C105.036073,43.2195239 106.581084,43.2034358 108.088306,43.2237027 C108.112836,35.2789947 114.555772,28.8461538 122.5,28.8461538 C130.459398,28.8461538 136.911765,35.3035853 136.911765,43.2692308 C136.911765,50.9727116 130.877128,57.2656212 123.280803,57.6715002 C118.935295,59.0133922 113.352088,59.9986365 107.160389,60.4141087 C107.761539,62.6765687 108.088235,65.2468086 108.088235,68.1512917 C108.088235,70.7159206 107.80539,73.4358494 107.284575,76.1975639 C105.941671,74.6001225 104.146046,73.5576923 102.323529,73.5576923 C97.2252724,73.5576923 93.6764706,77.7550228 93.6764706,82.2115385 C93.6764706,87.8675545 96.9391336,91.9592684 101.701981,92.2865316 Z" id="hair" fill="#191847"></path>
                                    </g>
                                    <g id="Bottom/Standing/Skirt" transform="translate(0.461381, 281.370683)">
                                        <path d="M140.591961,141.591571 C175.216587,151.277338 205.089667,156.120222 230.211203,156.120222 C255.332738,156.120222 278.666782,148.662267 300.213333,133.746357 C266.329988,123.804799 238.425543,118.83402 216.5,118.83402 C194.574457,118.83402 169.271777,126.41987 140.591961,141.591571 Z" id="Skirt-Shadow" fill="#1F28CF"></path>
                                        <path d="M260.185132,170.081142 C259.851268,169.579171 259.569319,169.033127 259.345684,168.441633 C254.717499,156.200537 180.585371,24.1435527 173.2,0 L256.662319,0 C262.277521,18.356684 287.550996,133.553628 291.107806,156.537116 C302.330196,192.79108 325.435974,310.204433 328.385617,318.338471 C331.488591,326.895341 314.029186,335.809387 309.376665,325.289776 C301.97372,308.5513 284.334716,262.236235 276.480799,233.956579 C269.117768,207.444463 263.122294,183.59269 260.185132,170.081142 Z" id="Leg" fill="#997659"></path>
                                        <path d="M191.901359,186.204144 C158.009369,194.771228 34.0396148,210.259 25.5322673,212.688218 C16.780861,215.187125 9.10755215,197.14625 19.924763,193.23829 C37.136772,187.020067 84.5636472,172.652597 113.318733,166.789516 C136.447583,162.073609 157.552942,158.225435 171.722525,155.971986 C170.52211,116.16459 165.034711,20.6329423 168.631399,1.42108547e-14 L242.48,1.42108547e-14 C239.031018,19.7856043 209.875262,164.153185 204.456249,178.603972 C202.73652,183.763 197.605206,186.042909 191.901359,186.204144 L191.901359,186.204144 Z" id="Leg" fill="#B28B67"></path>
                                        <g id="Accessories/Shoe/Flat-Sneaker" transform="translate(35.361667, 226.631799) rotate(80.000000) translate(-35.361667, -226.631799) translate(-8.660000, 197.761506)" fill="#E4E4E4">
                                            <path d="M4.21282993,35.9112582 C2.36602528,40.706147 1.44262295,44.2534685 1.44262295,46.5532227 C1.44262295,49.1679877 1.87600738,52.9835801 2.74277623,58 C5.7606548,58 32.8828377,58 84.109325,58 C86.2237531,50.9740355 85.0031826,47.1809434 80.4476133,46.6207236 C75.892044,46.0605038 72.1076552,45.5546702 69.0944469,45.1032227 L30.8628399,27.9722257 C30.3588389,27.7463906 29.7671899,27.9718885 29.5413548,28.4758895 C29.5369878,28.4856353 29.5327773,28.4954505 29.5287247,28.5053312 L26.9239795,34.8561078 C22.7067139,36.8338456 19.2797477,37.8227145 16.643081,37.8227145 C14.3472216,37.8227145 11.113888,36.8239132 6.94308034,34.8263106 L6.94307115,34.8263298 C5.94687863,34.3492047 4.75251876,34.7699921 4.27539372,35.7661846 C4.25263649,35.8136995 4.23176561,35.8620952 4.21282993,35.9112582 Z" id="shoe"></path>
                                        </g>
                                        <g id="Accessories/Shoe/Flat-Sneaker" transform="translate(300.213333, 287.259414)" fill="#E4E4E4">
                                            <path d="M4.21282993,35.9112582 C2.36602528,40.706147 1.44262295,44.2534685 1.44262295,46.5532227 C1.44262295,49.1679877 1.87600738,52.9835801 2.74277623,58 C5.7606548,58 32.8828377,58 84.109325,58 C86.2237531,50.9740355 85.0031826,47.1809434 80.4476133,46.6207236 C75.892044,46.0605038 72.1076552,45.5546702 69.0944469,45.1032227 L30.8628399,27.9722257 C30.3588389,27.7463906 29.7671899,27.9718885 29.5413548,28.4758895 C29.5369878,28.4856353 29.5327773,28.4954505 29.5287247,28.5053312 L26.9239795,34.8561078 C22.7067139,36.8338456 19.2797477,37.8227145 16.643081,37.8227145 C14.3472216,37.8227145 11.113888,36.8239132 6.94308034,34.8263106 L6.94307115,34.8263298 C5.94687863,34.3492047 4.75251876,34.7699921 4.27539372,35.7661846 C4.25263649,35.8136995 4.23176561,35.8620952 4.21282993,35.9112582 Z" id="shoe"></path>
                                        </g>
                                        <path d="M168.87,5.32907052e-15 C201.412605,-9.31173631 232.203716,-9.31173631 261.243333,5.32907052e-15 C271.346667,46.102203 295.896237,64.4002032 300.213333,135.08255 C251.14,159.468995 190.52,117.690409 140.003333,141.472102 C125.57,108.207456 145.776667,28.0973169 168.87,5.32907052e-15 Z" id="Skirt" fill="#2B44FF"></path>
                                    </g>
                                    <g id="Body/Jacket" transform="translate(242.045340, 283.886713) rotate(21.000000) translate(-242.045340, -283.886713) translate(57.202231, 149.045779)">
                                        <path d="M280.454811,128.679562 L321.397485,168.580397 C333.310294,173.656702 343.071144,179.261967 350.680035,185.396193 C352.391161,187.458115 354.254,191.408864 346.203238,189.640961 C338.152477,187.873057 329.604695,186.375194 328.091569,188.990712 C326.578443,191.60623 331.036992,195.614132 328.240548,199.037172 C326.376252,201.319199 320.106478,194.060519 309.431225,177.261133 L266.856259,152.18538 L280.454811,128.679562 Z M98.7263023,134.306795 L128.929564,134.42545 C110.280443,194.56711 100.21269,226.477898 98.7263023,230.157814 C95.3819308,238.437625 102.459071,251.047634 105.485536,257.824159 C95.628438,262.230454 96.6787223,245.912143 84.2442578,251.691245 C72.8946552,256.966142 64.2610408,266.523901 51.148215,258.441071 C49.5360701,257.447335 47.7694219,253.705737 52.0378672,250.781877 C62.672121,243.497474 77.9967249,230.748458 80.0673202,226.55202 C82.8909469,220.829428 89.1106076,190.081019 98.7263023,134.306795 Z" id="Skin" fill="#B28B67"></path>
                                        <path d="M176.364005,13.3351404 L188.6276,10.112562 C214.742885,61.7300099 256.419006,107.06085 313.655962,146.105082 L277.580672,198.621383 C218.728766,141.046379 180.190502,79.7041892 176.364005,13.3351404 Z" id="Coat-Back" fill="#191847" transform="translate(245.009983, 104.366972) rotate(5.000000) translate(-245.009983, -104.366972) "></path>
                                        <path d="M130.078125,164.59893 L241.367188,164.59893 C215.584069,101.972137 202.69251,48.7714191 202.69251,4.99677636 L169.122098,0 C142.738908,42.3891435 135.288226,94.5787619 130.078125,164.59893 Z" id="Shirt" fill="#DDE3E9"></path>
                                        <path d="M168.411332,0.0237078292 C168.415739,0.0158038455 168.420146,0.00790123563 168.424553,-4.26325641e-14 L170.615892,-4.26325641e-14 C173.238018,0.0902018536 177.231853,0.252718403 182.597397,0.487549648 L190.709213,23.6457627 C191.567263,51.8810384 196.578147,108.782738 205.741863,194.35086 L132.789649,194.35086 C132.980893,200.260697 133.296223,206.22574 133.73564,212.245989 L79.4921875,212.245989 C87.6060511,120.798236 117.236866,50.0495727 168.384634,1.42108547e-14 L168.411332,0.02370782 Z" id="Coat-Front" fill="#2F3676"></path>
                                        <path d="M137.608536,118.732281 C139.684747,155.571821 144.882944,180.967656 153.203125,194.919786 L132.808437,194.919786 C131.915565,168.414815 133.515599,143.01901 137.608535,118.732292 Z" id="Shade" fill-opacity="0.1" fill="#000000"></path>
                                        <polygon id="Light" fill-opacity="0.2" fill="#FFFFFF" points="149.027471 150.160428 185 133.454029 185 150.160428"></polygon>
                                    </g>
                                </g>
                            </g>
                        </g>
                    </g>
                    <g id="Group" transform="translate(276.492583, 315.483931) scale(-1, 1) translate(-276.492583, -315.483931) translate(146.899876, 128.482077)">
                        <g id="Head/Front/Curly" transform="translate(93.511588, 65.441462) rotate(-27.000000) translate(-93.511588, -65.441462) translate(36.102441, 21.540350)">
                            <g id="Head" stroke-width="1" transform="translate(45.661765, 26.230769)" fill="#B28B67">
                                <path d="M6.98648159,29.1839534 C3.0900875,24.6073181 0.45292648,18.9985883 0.893597635,12.7138456 C2.16329394,-5.39424818 27.3535369,-1.41069826 32.2535607,7.72871247 C37.1535845,16.8681232 36.5713343,40.0509965 30.2384901,41.6844641 C27.7129606,42.3358887 22.3328319,40.7401593 16.857116,37.4374897 L20.2941176,61.7692308 L0,61.7692308 L6.98648159,29.1839534 Z"></path>
                            </g>
                            <path d="M86.9059226,21.2896012 C86.4856735,19.8114222 85.3553099,18.545793 83.8319557,18.1703163 C83.4625445,18.0792394 83.081037,18.042453 82.7009231,18.05779 C82.5645749,18.0632357 82.526335,18.1025782 82.4626203,18.007167 C82.41535,17.9364283 82.4142908,17.7636101 82.3948364,17.6804795 C82.3342991,17.4219746 82.2585997,17.1666927 82.1651738,16.9180235 C81.8464333,16.0698807 81.3107955,15.3192607 80.6650646,14.6869462 C79.4572734,13.5040029 77.8253312,12.6875898 76.1298415,12.5398886 C75.201882,12.459092 74.2806674,12.6099606 73.4033786,12.9120312 C72.9491818,13.0684011 72.5087536,13.2631133 72.0798085,13.4783858 C71.9506512,13.5431788 71.5316284,13.8605308 71.4020252,13.8399704 C71.2588762,13.8172984 70.9711848,13.4613263 70.8547927,13.3719721 C69.4161126,12.267436 67.6395164,11.8331678 65.847535,11.8461538 C63.8248876,11.8613966 61.877215,11.9625314 60.1903098,13.1963755 C59.8332179,13.4576032 59.4931277,13.7436145 59.1693146,14.0447405 C58.9987957,14.2032776 58.8336282,14.3677605 58.6760975,14.5390783 C58.5810551,14.6424358 58.4885211,14.7481272 58.3994432,14.8566526 C58.2482673,15.0408623 58.2725156,15.1013765 58.0609139,14.9728464 C57.2490678,14.4792866 56.3082873,14.2484548 55.3607061,14.364982 C54.7980327,14.4342205 54.2505773,14.60326 53.7307706,14.8257565 C53.5537855,14.9014964 53.1441276,15.2036226 52.9554921,15.2065677 C52.7683617,15.2094573 52.3644454,14.9293918 52.1716849,14.8582085 C51.1305664,14.4736186 50.008397,14.3788186 48.9140994,14.5565268 C47.7852966,14.739903 46.6764499,15.190564 45.7200613,15.8133207 C45.2600672,16.1128908 44.858715,16.4448017 44.5363513,16.8902392 C44.3971601,17.0825619 44.2713474,17.2859984 44.1135937,17.4643179 C44.021227,17.5687312 43.8383331,17.6758673 43.7887772,17.8080093 C43.8184327,17.7288797 42.554285,17.2412101 42.4349943,17.2100362 C41.7994644,17.0439418 41.1523398,17.0776163 40.5300211,17.2825531 C39.359801,17.667921 38.3534106,18.5321231 37.5262908,19.4181636 C37.1014707,19.87327 36.7297183,20.3763321 36.4141552,20.9122908 C36.2629235,21.1690175 36.1246243,21.4330792 35.9980869,21.7027534 C35.9367692,21.833395 35.8961323,21.9968221 35.8153602,22.1145163 C35.7112316,22.2661629 35.6412737,22.2690525 35.452694,22.335179 C34.4949675,22.6709242 33.6219152,23.2392237 32.9570643,24.0071255 C32.2845765,24.7840294 31.8482176,25.7407531 31.6652679,26.7482665 C31.6545094,26.8076137 31.648099,27.0535601 31.6133708,27.0856787 C31.565766,27.1299113 31.3731728,27.1103511 31.3003162,27.1189087 C31.0480218,27.1485267 30.7975112,27.1925926 30.5503452,27.2511618 C30.0946991,27.359076 29.651205,27.5178909 29.2316806,27.7256061 C27.5962822,28.5352954 26.4267868,30.0532615 25.8544141,31.7613276 C25.2538352,33.5538578 25.2644822,35.6075047 25.9822893,37.3665827 C26.0982355,37.6507047 26.2362002,37.9264914 26.3982462,38.1873857 C26.497748,38.3475343 26.5298562,38.3479232 26.4652497,38.5159625 C26.3932293,38.7028951 26.261675,38.8845487 26.1761647,39.0672025 C25.8971692,39.6632864 25.7021232,40.2954897 25.5789304,40.9411963 C25.376805,42.0003884 25.2766343,43.113482 25.4760282,44.1807315 C25.5686179,44.6762919 25.7299392,45.1607385 25.976046,45.6021195 C26.1015243,45.8271721 26.2483523,46.0406109 26.414133,46.2380459 C26.5002007,46.3405699 26.5916198,46.4384817 26.6872197,46.5322814 C26.7419039,46.5858495 26.8135898,46.6327493 26.8600798,46.6925967 C26.9735733,46.8385197 26.9974314,46.7185472 26.9389009,46.9328195 C26.8570697,47.2323896 26.6715558,47.5279587 26.5579509,47.8194713 C26.4408898,48.1198748 26.3350889,48.4243905 26.2383185,48.7319068 C26.0423249,49.354608 25.8765999,49.9885896 25.772973,50.6334626 C25.5739693,51.8715854 25.6089204,53.1908384 26.1941698,54.3271596 C26.4444017,54.8132177 26.8033888,55.2395952 27.2388001,55.5712839 C27.4519069,55.733544 27.6827401,55.8734101 27.9248892,55.9882702 C28.0493084,56.0473952 28.2081769,56.0727344 28.2649237,56.1931515 C28.3260184,56.3226262 28.2353239,56.5797419 28.2146432,56.7244979 C28.0347036,57.9837924 27.9444552,59.3059905 28.3185488,60.5400568 C28.6630984,61.6767115 29.4217096,62.6802795 30.4066388,63.3447126 C32.3173536,64.6336251 34.8929193,64.5609414 36.9005717,63.529089 C37.4238902,63.2600817 37.9134841,62.9261147 38.3502332,62.5321893 C39.4623687,64.0303174 41.7509119,63.9829174 43.3763322,63.5560398 C45.4013765,63.0242488 47.0262951,61.6151971 47.9625047,59.7638753 C49.2426507,61.3232955 51.9292571,60.8173439 52.8169699,59.1256149 C53.0342575,58.7115737 53.1631361,58.2552448 53.226572,57.7934701 C53.2599623,57.5506356 53.2386683,57.3056894 53.2637528,57.0647997 C53.2957495,56.7578391 53.5006621,56.4595471 53.6184478,56.1625888 C53.8478316,55.5846759 53.9902559,54.987703 53.9963877,54.364335 C53.999565,54.03887 53.9583707,53.7216847 53.9274331,53.3988314 C53.8996172,53.1082079 53.9801663,52.8374224 54.0259316,52.5505775 C53.5065709,52.6361531 52.8738281,52.4960092 52.384513,52.3453073 C51.9043398,52.1974394 51.4546025,51.8079594 51.1156829,51.4522652 C50.3287541,50.6262942 49.8480234,49.5435411 49.5192492,48.4659002 C48.79754,46.1006805 49.09337,43.2629614 51.470768,41.9648801 C52.5782769,41.3601831 55.8962335,41.3621666 57.2153257,41.6610284 C58.6022933,41.9752686 60.1746459,45.0377097 60.2520177,45.3255548 C60.2999012,45.5037076 60.2758201,45.7242036 60.4393711,45.842898 C60.7988042,46.1039035 61.3915789,45.6509642 61.6566943,45.4274119 C62.11418,45.0415995 62.4405015,44.5282573 62.7231203,44.0079134 C63.3389171,42.874315 63.8353673,41.6586418 64.1860487,40.4176294 C64.456404,39.4608501 64.6292641,38.4742305 64.9826212,37.5418459 C65.3342502,36.6140734 65.8885621,35.7848239 66.75041,35.2592566 C67.6879574,34.6875118 68.7626334,34.3863858 69.7918785,34.0270796 C70.8120933,33.6709963 71.8146932,33.2357834 72.605524,32.4802179 C72.7793876,32.3140679 72.9482899,32.1375266 73.0882614,31.9419253 C73.1987448,31.7875003 73.307946,31.4918757 73.4762909,31.3939639 C73.7380059,31.2416505 74.1199593,31.6377431 74.3462773,31.7815545 C75.4628166,32.4911649 76.3943437,33.4808407 77.1456525,34.5619824 C77.8927806,35.6372338 78.5058349,36.6718647 79.0040132,37.8725343 C79.3735358,38.7630203 79.6041572,39.9034536 80.2540689,40.6332354 C80.544213,40.9590894 82.7009231,41.1562221 83.3994988,40.8717356 C84.0980744,40.5872491 84.8809897,39.8485519 85.1154463,39.3856103 C85.3554771,38.9117773 85.412837,38.3912667 85.3102693,37.8725343 C85.249955,37.5673518 85.1267622,37.2822852 85.0593684,36.9825484 C85.0026217,36.7307673 84.9511149,36.4927672 84.8286467,36.2621022 C84.5965314,35.825 84.1999732,35.5108154 83.7217511,35.3794513 C84.2194277,34.9202884 84.631817,34.3709933 84.9171672,33.7569609 C85.213666,33.1190339 85.464957,32.3432414 85.5362528,31.6430777 C85.5942259,31.0743892 85.5047578,30.4851958 85.1936542,29.9964704 C84.8672769,29.483795 84.2891069,29.1493279 83.7888661,28.8295309 C84.5529959,28.2312799 85.2069768,27.5037209 85.7446214,26.6981992 C86.7901994,25.1317218 87.4369337,23.157149 86.9059226,21.2896012 Z" id="hair" fill="#191847"></path>
                        </g>
                        <g id="Bottom/Standing/Baggy-Pants" transform="translate(5.909765, 172.227441)">
                            <polygon id="Leg" fill="#997659" points="113.006667 0 154.398849 104.995128 182.160757 193.759659 193.123333 193.759659 150.681477 4.3023287e-13"></polygon>
                            <path d="M104.67169,0 C104.230922,36.896009 97.8029123,86.5704964 96.775933,88.8704058 C96.0912801,90.4036788 72.4559593,109.901916 25.8699707,147.365118 L33.4205168,155.462865 C88.3876677,123.34287 117.143048,105.140864 119.686657,100.856848 C123.502071,94.4308248 135.923744,35.2977141 145.896667,0 L104.67169,0 Z" id="Leg" fill="#B28B67"></path>
                            <g id="Accessories/Shoe/Flat-Sneaker" transform="translate(43.431667, 159.740586) rotate(50.000000) translate(-43.431667, -159.740586) translate(17.710000, 142.836820)" fill="#E4E4E4">
                                <path d="M2.11439847,21.9339632 C1.26217654,24.3015655 0.836065574,26.0868511 0.836065574,27.2898202 C0.836065574,28.8226135 1.08723155,31.0593401 1.5895635,34 C3.33856131,34 19.0570991,34 48.745177,34 C49.9705842,29.8813312 49.2632081,27.6577944 46.6230486,27.3293897 C43.9828891,27.000985 41.7896638,26.7044618 40.0433726,26.4398202 L18.2886143,16.5798008 C17.7855848,16.3518102 17.1929758,16.5747733 16.9649852,17.0778028 C16.9594375,17.0900431 16.9541371,17.1023939 16.9490872,17.1148478 L15.60367,20.4328908 C13.1595728,21.5922543 11.1734901,22.1719361 9.64542194,22.1719361 C8.46496397,22.1719361 6.85686212,21.7110798 4.8211164,20.7893673 L4.82111591,20.7893684 C3.81487931,20.3337806 2.62983651,20.7801697 2.17424873,21.7864063 C2.15234778,21.834778 2.13238187,21.8840026 2.11439847,21.9339632 Z" id="shoe"></path>
                            </g>
                            <g id="Accessories/Shoe/Flat-Sneaker" transform="translate(175.413333, 168.192469)" fill="#E4E4E4">
                                <path d="M2.11439847,21.9339632 C1.26217654,24.3015655 0.836065574,26.0868511 0.836065574,27.2898202 C0.836065574,28.8226135 1.08723155,31.0593401 1.5895635,34 C3.33856131,34 19.0570991,34 48.745177,34 C49.9705842,29.8813312 49.2632081,27.6577944 46.6230486,27.3293897 C43.9828891,27.000985 41.7896638,26.7044618 40.0433726,26.4398202 L18.2886143,16.5798008 C17.7855848,16.3518102 17.1929758,16.5747733 16.9649852,17.0778028 C16.9594375,17.0900431 16.9541371,17.1023939 16.9490872,17.1148478 L15.60367,20.4328908 C13.1595728,21.5922543 11.1734901,22.1719361 9.64542194,22.1719361 C8.46496397,22.1719361 6.85686212,21.7110798 4.8211164,20.7893673 L4.82111591,20.7893684 C3.81487931,20.3337806 2.62983651,20.7801697 2.17424873,21.7864063 C2.15234778,21.834778 2.13238187,21.8840026 2.11439847,21.9339632 Z" id="shoe"></path>
                            </g>
                            <polygon id="Pant" fill="#69A1AC" points="140.836667 184.616919 192.958432 178.947766 154.33 2.84217094e-14 107.646502 2.84217094e-14"></polygon>
                            <path d="M36.6512313,134.300823 L70.84,174.85759 C106.850293,135.44139 127.844389,109.722312 133.822285,97.7003565 C139.800182,85.6784012 145.174007,53.1116157 149.94376,0 L97.3865697,0 C94.7810884,46.7252828 93.0248127,71.1751022 92.1177426,73.3494583 C91.2106724,75.5238143 72.7218353,95.840936 36.6512313,134.300823 Z" id="Pant" fill="#89C5CC"></path>
                        </g>
                        <g id="Body/Jacket-2" transform="translate(124.348385, 166.058034) rotate(-14.000000) translate(-124.348385, -166.058034) translate(16.284108, 87.120456)">
                            <path d="M167.0625,65.580213 L197.635416,52.1350774 C202.991078,46.7908315 208.162733,42.7289574 213.150381,39.9494552 C214.641783,39.4739844 217.189772,39.330339 214.471266,43.3065059 C211.75276,47.2826728 209.071876,51.5874344 210.158119,52.9809456 C211.244363,54.3744568 214.390974,52.8363999 215.634103,55.1025224 C216.462856,56.6132707 211.158804,58.4204413 199.721946,60.5240341 L176.824637,78.1037824 L167.0625,65.580213 Z M43.4601137,69.2834225 L60.75,72.718735 C43.3620695,105.16806 34.0372347,122.366222 32.7754956,124.313219 C29.9365828,128.693963 32.585346,136.722586 33.563788,140.950515 C27.4255912,142.381336 29.8463075,133.12979 22.0785381,135.061429 C14.9884784,136.824539 8.97696268,141.349308 2.3657724,135.246935 C1.55296541,134.496684 0.957952253,132.151612 3.72922304,130.948836 C10.6334692,127.952282 20.8339114,122.341295 22.4879139,120.162884 C24.7434419,117.19223 31.7341752,100.23241 43.4601137,69.2834225 Z" id="Skin" fill="#B28B67"></path>
                            <path d="M104.01256,8.34020914 L111.171587,6.4559305 C128.347928,20.4489325 138.040535,56.8290869 149.018571,60.7963985 C159.39786,64.5473311 173.1464,58.8360369 189.425462,51.324223 L195.580231,62.3901793 C181.756357,80.2707853 150.445463,97.094701 136.560024,90.2689076 C114.360093,79.3558827 105.506219,34.2151324 104.01256,8.34020914 Z" id="Coat-Back" fill="#DB2721" transform="translate(149.796396, 49.139232) rotate(5.000000) translate(-149.796396, -49.139232) "></path>
                            <path d="M75.9375,96.3208556 C105.191794,96.3208556 126.71064,96.3208556 140.494037,96.3208556 C143.443941,96.3208556 142.888088,92.0553939 142.461661,89.9030186 C137.540183,65.0620057 118.3286,38.284596 118.3286,2.9240395 L99.7074563,0 C84.3053779,24.8054988 78.9790722,55.3460903 75.9375,96.3208556 Z" id="Shirt" fill="#DDE3E9"></path>
                            <path d="M69.4986367,71.1702717 C56.3383528,94.9418047 45.276422,112.05617 36.3128444,122.513369 L22.78125,119.859324 C31.4976876,65.7268781 56.7393276,25.7737701 98.5061701,-9.9475983e-14 L101.867172,-9.9475983e-14 L105.879148,0 C122.595966,57.0633034 127.204497,95.0846938 119.704741,114.064171 L61.59375,114.064171 C62.5131237,100.176605 65.4609906,85.4899971 69.4986379,71.1702688 Z" id="Coat-Front" fill="#FF4133"></path>
                        </g>
                    </g>
                </g>
            </g>
        </g>
    </g>
</svg>