<svg xmlns="http://www.w3.org/2000/svg" width="633" height="613" viewBox="0 0 633 613">
    <g fill="none" fill-rule="evenodd">
        <path fill="#B28B67" d="M360.13 364.54c3.896-4.577 6.533-10.186 6.092-16.47-1.27-18.108-26.46-14.125-31.36-4.985-4.9 9.139-4.317 32.322 2.015 33.955 2.526.652 7.906-.944 13.382-4.247l-3.437 24.332h20.294l-6.987-32.585z"/>
        <path fill="#191847" d="M346.43 332.551c2.674-.439 9.876-.74 11.204-.74.849 0 1.769.194 2.271-.586.412-.639.261-1.719.384-2.46.143-.86.345-1.71.55-2.558.584-2.412 1.465-4.707 2.7-6.861 2.315-4.042 5.707-7.209 9.99-9.05 4.728-2.035 10.08-2.5 15.166-2.088 5.443.441 10.37 2.24 15.51 3.931 4.898 1.613 10.027 2.248 15.15 1.46 5.16-.793 9.06-3.592 13.414-6.249 4.456-2.72 9.549-4.499 14.817-4.09 4.918.382 9.45 2.414 13.517 5.128 3.804 2.54 6.944 5.596 8.716 9.896 1.907 4.626 1.905 9.703-1.23 13.792-4.545 5.925-12.982 7.458-20.001 7.305a38.192 38.192 0 0 1-11.881-2.178c-5.112-1.8-9.53-4.85-14.312-7.323-2.245-1.161-4.565-2.115-6.996-2.802-2.36-.667-4.684-.973-6.82.454-2.261 1.509-4.286 2.991-6.872 3.936-2.48.906-5.108 1.413-7.75 1.392-5.142-.04-10.21-1.642-15.205-2.716-4.072-.876-8.43-1.748-12.58-.907-1.733.352-4.264 1.077-4.89 2.878 10.532 1.91 14.668 14.943 11.7 24.51-1.603 5.165-11.235 11.201-14.98 8.487-2.373-1.72-.933-3.978 0-5.469 1.785-2.854 2.396-6.52-.908-8.508-2.85-1.714-5.845 2.356-5.902 2.352-.783-.062-7.55-3.892-12.212-9.48-4.6.273-5.297-2.762-4.2-5.244 1.099-2.482 7.954-5.605 11.65-6.212z"/>
        <path fill="#DDE3E9" d="M421.41 503.017h-92.19c-8.836 0-16 7.163-16 16v73c0 8.836 7.164 16 16 16h92.19c8.837 0 16-7.164 16-16v-73c0-8.837-7.163-16-16-16zm-11.655 23.71a4 4 0 0 1 4 4v49.58a4 4 0 0 1-4 4h-68.88a4 4 0 0 1-4-4v-49.58a4 4 0 0 1 4-4h68.88z"/>
        <path fill="#B28B67" d="M228.916 603.594c16.693-20.348 27.988-35.434 33.885-45.256 10.096-16.819 18.36-31.784 20.968-37.501 6.218-13.632-14.317-20.016-18.964-13.657-7.034 9.624-22.057 39.907-45.067 90.85l9.178 5.564z"/>
        <path fill="#2F3676" d="M263.123 597.678l31.066-78.064c6.645-14.231-25.443-23.585-30.326-16.963-11.086 15.036-37.436 74.349-40.739 78.828l39.999 16.199z"/>
        <path fill="#B28B67" d="M345.802 582.001c-6.04-8.813-28.011-38.46-39.982-50.725a907.504 907.504 0 0 0-9.97-10.06c-9.436-9.37-28.256 6.409-18.837 14.942 23.458 21.251 57.686 49.938 60.546 52.496 4.008 3.585 12.039-1.114 8.243-6.653z"/>
        <path fill="#E4E4E4" d="M344.745 578.345c1.952 1.626 3.23 2.963 3.834 4.01.767 1.327 1.663 3.392 2.69 6.195l-41.638 24.04c-3.142-2.942-3.629-5.229-1.462-6.859a267.01 267.01 0 0 0 5.365-4.125l14.298-19.655a1 1 0 0 1 1.418-.205l2.861 2.199c2.738-.242 4.782-.753 6.13-1.532 1.052-.607 2.254-1.842 3.605-3.706a2 2 0 0 1 2.9-.362zM236.196 600.984c.877 2.384 1.316 4.18 1.316 5.39 0 1.532-.256 3.77-.768 6.71h-48.08c-1.25-4.119-.529-6.342 2.163-6.67a267.01 267.01 0 0 0 6.709-.89l22.21-9.873a1 1 0 0 1 1.33.531l1.379 3.335c2.492 1.159 4.517 1.739 6.075 1.739 1.214 0 2.872-.47 4.974-1.408a2 2 0 0 1 2.692 1.136z"/>
        <path fill="#5C63AB" d="M305.368 523.513c25.82-4.2 43.115-7.07 51.885-8.614 24.996-4.4 32.285-17.828 27.975-47.125h-46.055c-6.094 1.757-31.56 12.623-76.397 32.599-8.067 3.997-6.565 15.784-5.09 19.668.06.158 13.66 23.42 40.798 69.787l37.675-23.958-30.862-39.534c-.815-1.639-.791-2.58.07-2.823z"/>
        <g>
            <path fill="#B28B67" d="M301.86 456.492l-27.038 19.792c-7.333 1.972-13.46 4.426-18.38 7.362-1.163 1.055-2.568 3.193 2.253 2.824 4.82-.37 9.907-.542 10.572 1.097.665 1.638-2.252 3.598-.908 5.81.897 1.473 5.131-2.223 12.704-11.09l26.775-11.067-5.977-14.728zm103.816.684l-17.714.069c10.938 35.194 16.842 53.868 17.714 56.021 1.962 4.845-2.19 12.225-3.964 16.19 5.78 2.579 5.165-6.97 12.458-3.589 6.656 3.087 11.72 8.68 19.41 3.95.945-.581 1.982-2.771-.522-4.482-6.237-4.263-15.224-11.723-16.439-14.179-1.656-3.349-5.303-21.342-10.943-53.98z"/>
            <path fill="#E87613" d="M355.336 383.086l-7.33-1.253c-27.195 23.417-38.365 68.405-71.7 92.237l8.023 9.913c57.83-7.137 72.164-62.011 71.007-100.897z"/>
            <path fill="#DDE3E9" d="M387.289 474.902h-64.856c-2.963 0-2.405-4.265-1.976-6.418 4.944-24.84 24.244-51.618 24.244-86.979l18.708-2.924c15.473 24.806 20.824 55.346 23.88 96.321z"/>
            <path fill="#FF9B21" d="M386.767 402.964c2.717-.779 4.87-2.594 6.455-5.447 6.838-12.298 4.368-19.069-2.939-21.295-7.307-2.225-13.823 2.36-25.466 2.36-.633 0-1.213.039-1.74.118l-5.856.333c-16.803 56.762-21.437 94.633-13.902 113.612h51.046c3.024 7.03 5.919 12.944 8.682 17.744h13.91c1.309-42.19-8.754-77.998-30.19-107.425z"/>
            <path fill="#000" fill-opacity=".1" d="M383.25 463.494c-1.606 13.389-4.215 23.106-7.829 29.151h18.944c-3.528-8.2-7.233-17.917-11.116-29.151z"/>
        </g>
        <g>
            <path fill="#DDE3E9" d="M113.704 185.034c-9.144-1.385-16.152-9.279-16.152-18.81v-16.102c0-10.508 8.518-19.026 19.025-19.026 7.421 0 13.85 4.249 16.986 10.446.39.633.786 1.556 1.195 2.83 2.938 9.166 7.651 36.82 3.481 40.897h-24.522a66.399 66.399 0 0 1-.013-.235z"/>
            <path fill="#D4A181" d="M107.075 163.665c-3.896-4.577-6.534-10.186-6.093-16.47 1.27-18.108 26.46-14.125 31.36-4.986 4.9 9.14 4.318 32.323-2.015 33.956-2.526.652-7.906-.944-13.381-4.247l3.437 24.332h-20.295l6.987-32.585z"/>
            <path fill="#DDE3E9" d="M112.56 160.606c.936 10.05.561 21.528-2.225 24.252H85.813c-1.367-23.754 11.838-14.555 11.838-36.921.823-.805 1.601-1.602 2.37-2.289l-.027-.657c4.247-8.7 9.634-13.049 16.162-13.049 9.792 0 12.882 4.56 15.514 8.43-1.968 6.757-9.604 7.76-16.39 11.97a4.652 4.652 0 0 0-7.581 3.614 4.652 4.652 0 0 0 4.862 4.65z"/>
            <g>
                <path fill="#D4A181" d="M98.453 266.278l41.556 104.995 27.872 88.765h11.006l-42.61-193.76z"/>
                <path fill="#BA8B72" d="M90.085 266.278c-.442 36.896-6.896 86.57-7.927 88.87-.687 1.534-24.416 21.032-71.186 58.495l7.58 8.098c55.185-32.12 84.054-50.322 86.608-54.606 3.83-6.426 16.301-65.56 26.313-100.857H90.085z"/>
                <path fill="#E4E4E4" d="M9.57 411.11c-2.39.86-4.048 1.68-4.974 2.456-1.174.985-2.723 2.62-4.646 4.902l30.905 36.831c3.958-1.69 5.198-3.672 3.72-5.945a267.01 267.01 0 0 1-3.632-5.71l-6.713-23.361a1 1 0 0 0-1.262-.677l-3.44 1.087c-2.49-1.164-4.236-2.343-5.238-3.536-.78-.93-1.487-2.502-2.12-4.715a2 2 0 0 0-2.6-1.332zM163.275 456.371c-.877 2.384-1.316 4.18-1.316 5.39 0 1.532.256 3.769.768 6.71h48.08c1.25-4.119.529-6.343-2.163-6.671a267.01 267.01 0 0 1-6.709-.89l-22.21-9.872a1 1 0 0 0-1.33.531l-1.379 3.335c-2.492 1.159-4.517 1.739-6.075 1.739-1.214 0-2.872-.47-4.974-1.408a2 2 0 0 0-2.692 1.136z"/>
                <path fill="#E87613" d="M126.393 450.895l52.328-5.67-38.781-178.947H93.072z"/>
                <path fill="#FF9B21" d="M21.796 400.579l34.324 40.557c36.153-39.416 57.23-65.136 63.231-77.157 6.002-12.022 11.397-44.59 16.185-97.7H82.771c-2.615 46.724-4.379 71.174-5.29 73.349-.91 2.174-19.472 22.491-55.685 60.951z"/>
            </g>
            <g>
                <path fill="#D4A181" d="M168.11 252.847l24.012 23.35c6.987 2.97 12.711 6.25 17.174 9.84 1.003 1.206 2.096 3.518-2.626 2.484-4.721-1.035-9.735-1.911-10.622-.38-.887 1.53 1.727 3.875.087 5.878-1.093 1.336-4.77-2.912-11.031-12.743l-24.97-14.674 7.976-13.755zM61.528 256.14l17.714.07c-10.937 35.194-16.842 53.867-17.714 56.02-1.961 4.846 2.19 12.225 3.965 16.19-5.782 2.58-5.166-6.97-12.458-3.588-6.657 3.087-11.72 8.68-19.41 3.95-.946-.582-1.982-2.771.521-4.482 6.237-4.263 15.225-11.724 16.44-14.18 1.655-3.348 5.303-21.342 10.942-53.98z"/>
                <path fill="#191847" d="M111.868 182.05l7.33-1.252c12.62 31.423 34.652 59.974 66.097 85.654l-23.762 28.775c-31.441-36.565-50.822-74.29-49.665-113.176z"/>
                <path fill="#DDE3E9" d="M79.916 273.867h65.27c-15.122-36.649-22.683-67.78-22.683-93.397l-19.689-2.924c-15.473 24.805-19.843 55.346-22.898 96.32z"/>
                <path fill="#2F3676" d="M102.398 177.56l.007-.014h1.286c1.537.053 3.88.148 7.027.285l4.757 13.552c.503 16.523 3.442 49.82 8.816 99.894H81.506c.112 3.458.297 6.949.555 10.472H50.248c4.758-53.514 22.137-94.915 52.134-124.203l.016.014z"/>
                <path fill="#000" fill-opacity=".1" d="M84.332 247.026c1.218 21.558 4.267 36.42 9.146 44.584H81.517c-.524-15.51.415-30.372 2.815-44.584z"/>
                <path fill="#FFF" fill-opacity=".2" d="M91.03 265.417l21.097-9.776v9.776z"/>
            </g>
        </g>
        <g>
            <path fill="#B28B67" d="M496.17 27.296c2.337-4.325 3.491-9.262 2.07-14.217-4.096-14.276-23.558-6.807-25.921 1.34-2.363 8.147 2.046 26.602 7.387 26.833 2.13.092 6.16-2.1 9.976-5.673l1.392 20.057 16.225-3.45-11.129-24.89z"/>
            <path fill="#C5CFD6" d="M498.11 30.293c.108-9.508 4.595-16.927 2.847-20.795-1.166-2.578-3.098-3.925-5.796-4.04-2.462-5.08-7.214-6.453-14.255-4.12-10.561 3.5-16.207 9.402-11.251 18.697 2.62-.557 5.583-2.18 10.303-1.483 1.498.221 2.83 1.61 4 4.169l1.976-.42c1.242-3.595 2.885-5.167 4.93-4.72 2.044.449 2.904 2.41 2.579 5.884l2.564 7.275 2.103-.447z"/>
            <path fill="#997659" d="M543.156 97.33l-51.271 85.763-38.439 72.506h-8.28L509.573 97.33z"/>
            <path fill="#E4E4E4" d="M458.75 253.157c.612 1.763.918 3.107.918 4.032 0 1.262-.207 3.104-.62 5.526h-38.835c-1.009-3.392-.426-5.223 1.748-5.493 2.174-.27 3.98-.515 5.419-.733l17.748-8.044a1 1 0 0 1 1.34.535l1.038 2.562c2.013.955 3.649 1.432 4.907 1.432.909 0 2.125-.331 3.649-.994a2 2 0 0 1 2.687 1.177z"/>
            <path fill="#2F3676" d="M464.122 243.989l-15.967-4.833c6.996-20.924 15.57-43.95 25.722-69.078 10.152-25.128 21.055-49.377 32.71-72.748h45.095c-12.957 29.563-26.693 56.424-41.208 80.584-14.515 24.16-29.966 46.186-46.352 66.075z"/>
            <path fill="#997659" d="M546.526 97.33c4.839 30.138 14.172 68.643 15.053 69.83.587.793 21.727 7.88 63.418 21.263l-1.788 7.305c-49.717-7.177-75.914-12.746-78.59-16.705-4.015-5.94-24.059-52.86-31.823-81.693h33.73z"/>
            <path fill="#5C63AB" d="M610.342 182.109l-3.15 11.765c-37.186 3.263-59.97.905-68.353-7.074-8.384-7.979-17.938-37.802-28.664-89.47h43.002c6.795 42.31 10.594 64.352 11.397 66.128.803 1.776 16.059 7.993 45.768 18.65z"/>
            <path fill="#E4E4E4" d="M623.89 185.31c1.843-.297 3.22-.365 4.131-.204 1.243.219 3.021.743 5.334 1.57l-6.743 38.245c-3.516.404-5.218-.487-5.107-2.675.112-2.189.185-4.01.22-5.464l-4.84-18.875a1 1 0 0 1 .76-1.227l2.703-.578c1.29-1.816 2.044-3.344 2.263-4.583.157-.895.042-2.15-.346-3.767a2 2 0 0 1 1.626-2.442z"/>
            <g>
                <path fill="#B28B67" d="M468.58 95.749l-26.672 6.26c-6.156-.884-11.554-1.01-16.197-.376-1.211.424-2.95 1.593.802 2.878 3.751 1.286 7.64 2.807 7.621 4.269-.019 1.462-2.84 2.004-2.53 4.121.208 1.412 4.574-.022 13.1-4.301l23.703.286.174-13.137zm81.867-24.673l-14.034 5.448c28.77 28.883 43.799 44.019 45.089 45.407 2.903 3.123 1.92 9.954 1.735 13.492 5.132.286 1.872-6.814 8.383-6.356 5.944.418 11.414 3.21 15.853-2.631.546-.718.69-2.688-1.706-3.265-5.97-1.436-14.958-4.51-16.596-6.03-2.234-2.07-15.142-17.426-38.724-46.065z"/>
                <path fill="#E87613" d="M494.781 41.127l-10.722 4.96c6.734 25.642-2.063 46.849-37.133 54.275l7.77 33.368c32.43-7.852 54.757-30.662 47.412-66.392-1.901-9.25-4.241-18.737-7.327-26.211z"/>
                <path fill="#FF9B21" d="M498.978 35.833l-15.202 10.232c11.045 28.774 8.957 50.639 12.393 73.593l45.029-17.285c3.44 7.067 6.714 14.431 9.88 22.07l33.715-12.942c-23.298-37.857-51.537-63.224-84.718-76.1l-1.092.418-.005.014z"/>
                <path fill="#000" fill-opacity=".1" d="M518.336 64.05c8.043 17.485 12.613 31.43 13.71 41.836l9.152-3.513c-6.816-13.999-14.285-26.831-22.862-38.323z"/>
            </g>
        </g>
        <g transform="translate(151.26 134.984)">
            <circle cx="147.174" cy="99.956" r="32.617" fill="#E7375C" fill-opacity=".249" opacity=".753"/>
            <path stroke="#D2D2D2" stroke-linecap="round" stroke-linejoin="round" d="M0 20.398h136.176c6.075 0 11 4.925 11 11v28.245"/>
            <path stroke="#D2D2D2" stroke-linecap="round" stroke-linejoin="round" d="M294.328 0H158.152c-6.075 0-11 4.925-11 11v28.245M147.708 144.24v94.013c0 6.075 4.925 11 11 11h17.64"/>
        </g>
    </g>
</svg>
