<?xml version="1.0" encoding="UTF-8"?>
<svg width="209px" height="692px" viewBox="0 0 209 692" version="1.1" xmlns="http://www.w3.org/2000/svg" xmlns:xlink="http://www.w3.org/1999/xlink">
    <!-- Generator: Sketch 55.1 (78136) - https://sketchapp.com -->
    <title>left leaf</title>
    <desc>Created with Sketch.</desc>
    <g id="Page-1" stroke="none" stroke-width="1" fill="none" fill-rule="evenodd" opacity="0.4">
        <g id="Accueil" transform="translate(0.000000, -161.000000)">
            <g id="First-section" transform="translate(-13.000000, 0.000000)">
                <g id="left-leaf" transform="translate(0.000000, 93.660675)">
                    <g id="Corner-Plants" transform="translate(75.500000, 660.339325) scale(-1, 1) translate(-75.500000, -660.339325) translate(13.000000, 561.839325)" fill="#89C5CC">
                        <path d="M25.396962,26 C22.5654715,26 19.7426136,26.0568738 16.9146777,26.2040472 C14.7590684,26.3167971 11.4649725,25.8697889 9.64095635,27.2138067 C7.74584828,28.6097093 7.87635277,31.4673685 8.17239993,33.4853907 C9.73743827,44.157211 13.5571068,53.6202136 21.5478411,61.1809371 C33.8513174,72.8231043 47.9559588,78.7384787 64.6463157,81.3726338 C76.3703927,83.2230279 87.1936331,80.6537289 95.824195,72.3137345 C102.13005,84.0212567 106.91403,96.9770092 109.314399,110.052995 C110.498588,116.505178 110.860141,122.879534 110.651943,129.449456 C110.517884,133.657619 110.285819,137.855803 109.834893,142.04401 C109.639391,143.863972 108.711641,146.618859 109.424084,148.338543 C110.259922,150.358062 113.078717,150.553628 114.344154,148.83145 C115.39733,147.39813 115.203859,144.583376 115.420181,142.887139 C115.778688,140.069392 116.110789,137.249648 116.348439,134.418929 C116.734366,129.837096 117.01975,125.242291 117,120.642997 C116.950689,110.309426 114.653912,99.9354448 111.512156,90.1262105 C105.485082,71.3074673 95.7058777,54.5825782 80.4967721,41.4601954 C71.1451349,33.3910999 60.4422429,30.1233507 48.2992313,28.3692429 C40.739111,27.2771661 33.0555954,26 25.396962,26" id="Fill-16"></path>
                        <path d="M121.225393,1.3341544 C120.69196,0.946240028 119.426405,0.808691352 118.837645,0.692486436 C116.390395,0.210049702 113.869376,0 111.374455,0 C103.681258,0.0115188546 95.8631417,0.766681412 88.297649,2.07373262 C83.4943162,2.90342894 77.6874473,5.69573482 72.9091681,4.17931149 C64.5847599,1.53708951 56.1716202,1.66684602 48.2738193,5.43893212 C41.0531616,8.88815149 35.5716416,15.4389919 32.3727834,22.517328 C31.8901535,23.5858712 29.9321447,27.5185437 29.3778337,30.1695742 C29.1408684,30.7116379 28.9132981,31.2574284 28.7079977,31.8113498 C28.1255014,33.3840122 27.6032034,34.9844554 27.1177898,36.5879477 C26.9104016,37.2719644 26.3887995,38.7822895 27.0081802,39.0743264 C26.0185628,40.9007424 25.1413387,42.7830588 24.4106086,44.7263573 C22.2855757,50.3780494 19.9622018,56.5775648 19.2154652,62.5677079 C18.9388317,64.785765 18.9283927,67.0166962 19.1851921,69.2391575 C19.3122,70.3375142 19.259657,72.5464239 20.0043058,73.3815409 C21.5847707,75.1537506 22.3962291,72.6727926 22.2180702,71.4910936 C20.8575202,62.4847044 23.4846691,54.0271548 26.5982754,45.5611355 C28.611611,40.0866304 31.9197307,35.0783002 35.6255764,30.5425818 C38.6247017,26.8711163 41.8420021,23.9798838 45.9532291,21.5456788 C50.9806525,18.5690712 56.3556946,16.162647 61.6813255,13.7487694 C65.1839587,12.1605226 68.6907674,10.6149633 72.2911792,9.24659115 C73.0918507,8.94201908 74.3514902,8.16144728 75.2391534,8.15839818 C77.1164339,8.15162238 79.7766396,9.53693404 81.5898943,10.0522334 C87.5540441,11.7478765 93.5943986,13.9188419 99.7582814,14.7847887 C103.711879,15.3407428 107.415985,14.714998 111.11348,13.3977831 C111.491372,13.2636223 112.124671,12.9177179 112.900637,12.4237623 C115.645747,11.3677543 118.242622,10.0386818 120.50371,8.12147008 C121.806498,7.01667641 122.988541,5.58901602 124.066542,4.2823036 C124.389107,3.89167891 124.531773,3.44379874 124.536645,3.0182787 C124.780917,2.89055493 124.94307,2.7414874 124.979606,2.56734942 C125.248585,1.28130318 122.795767,1.25758789 121.225393,1.3341544" id="Twisted-Leaf"></path>
                        <path d="M69.3647363,100 C38.9133796,100 18.4043563,124.840973 8.70737724,150.658994 C5.05199764,160.390757 4.19525247,171.077018 2.78646019,181.295589 C2.33415061,184.574807 2.50170962,189.571828 1.1866706,192.493171 C0.709426633,193.55258 -0.384693808,193.933497 0.138429411,195.376765 C0.455095992,196.250864 1.07646065,196.786206 2.00950502,196.959751 C3.92496383,197.316646 6.6333358,195.205181 8.27551384,194.371772 C21.896665,187.457421 30.8461114,176.766258 38.1468969,163.685663 C42.6724862,155.578067 47.264401,147.161619 49.9528255,138.260814 C51.5950035,132.823557 52.5509875,127.097059 53.1125097,121.456353 C53.3334282,119.235073 53.5473652,116.960848 53.5343993,114.725842 C53.5214334,112.508484 52.5021161,111.33632 51.7695441,109.406243 C61.9303026,105.513244 73.3991184,104.452364 83.6915303,108.486552 C93.2109766,112.217772 101.118665,119.428228 105.546511,128.486891 C106.696983,130.841515 107.584149,133.325564 108.230448,135.859126 C108.653335,137.51859 108.673781,139.671726 109.457718,141.171862 C111.358714,144.808955 115.358188,142.377363 114.974199,138.991762 C113.903517,129.547281 108.565566,120.065541 101.743022,113.49926 C93.1381682,105.218119 81.4743655,100 69.3647363,100" id="Fill-18"></path>
                    </g>
                    <g id="Corner-Plants" transform="translate(112.000000, 184.000000) scale(1, -1) translate(-112.000000, -184.000000) ">
                        <path d="M165.452652,0.828808733 C161.150204,-0.10725439 156.39964,-0.0356125283 152.017077,0.0416062444 C128.513403,0.359919185 105.433195,11.4421 90.4120439,29.1496516 C77.6244327,44.224472 74.1081697,62.9667551 71.5819012,81.91281 C71.3314312,83.7939451 71.2240241,85.6630684 71.0827221,87.5480644 C71.0523488,87.952605 71.0070089,88.3133882 70.9585876,88.6531508 C69.9650717,89.5377348 69.443883,90.5690344 70.031981,91.7020054 C67.8433407,96.4719806 65.9918882,101.362932 64.4032311,106.407463 C59.7274994,121.255775 54.9712123,136.386364 57.901138,152 C58.5856383,143.407696 60.0255101,134.621486 61.7475458,126.170321 C61.8465892,125.685129 61.9535562,125.203799 62.0649251,124.724185 C62.0763701,124.673563 62.0869347,124.622942 62.0983797,124.57275 C62.7080473,121.984634 63.5003949,119.474166 64.4639778,117.003165 C64.4741022,116.976139 64.4837865,116.949541 64.4943511,116.922944 C64.6215669,116.597767 64.7567062,116.274306 64.8900847,115.950845 C65.1660859,115.281187 65.4495703,114.612815 65.7502222,113.947876 C65.8519068,113.721367 65.9496297,113.492714 66.0433908,113.262345 C67.4462864,109.838121 68.0387864,105.979756 69.2955379,102.436702 C69.5961898,101.631053 69.9104877,100.828406 70.2397522,100.03005 C70.2591207,99.9832898 70.2789294,99.9365295 70.2987381,99.8897692 C71.1888087,97.7413714 72.1722002,95.6191421 73.2119364,93.5192205 C73.7771444,93.0962332 74.0791169,92.0469159 74.5664108,91.0932641 C74.667215,90.905365 75.4551608,89.652276 75.6897837,88.9302804 C76.3020924,87.7505492 76.9122001,86.5703889 77.5289107,85.3928027 C77.5104226,85.3996666 77.4919345,85.4065304 77.4734464,85.4133943 C78.0905972,84.2825683 78.7095088,83.1564612 79.3235782,82.035073 C79.4587175,81.7888309 79.5951774,81.5421599 79.7311971,81.2950598 C79.9517339,80.901673 80.1722707,80.5087153 80.3923672,80.1166155 C82.4511506,76.4474368 84.6340685,72.851616 86.9010633,69.3004104 C87.7101383,68.0331646 89.6430265,66.2159495 90.0136691,64.7929791 C90.0273151,64.7397839 90.0303965,64.6908787 90.0387601,64.6398285 C94.9579187,57.7592069 100.621004,51.4126817 107.412304,46.3840237 C106.591343,47.2677496 104.846418,50.266841 104.385095,50.8605675 C102.973396,52.6786406 101.440643,54.3710187 99.9021683,56.0839885 C97.1469993,59.1525767 94.4569789,62.3185464 92.06673,65.6664092 C87.6956119,71.7889999 83.9244771,78.2324775 80.3597929,84.805511 C80.3258981,84.8441204 80.2889218,84.8805848 80.2567877,84.9200522 C78.4652016,87.1195002 77.3374267,90.4437684 76.0476608,92.9598134 C81.1517004,90.6054988 86.7954169,89.0718482 92.0337155,86.9813644 C97.2574878,84.8973155 102.339078,82.5764624 107.24503,79.8510687 C113.765612,76.2290793 120.52962,72.1394873 126.690563,67.5115089 C133.750821,63.1499352 139.683745,57.1466046 144.920723,50.8468397 C151.116882,43.3930832 156.795373,35.8741197 160.307234,26.8236506 C162.032351,22.3762783 163.389467,17.738862 164.19414,13.0473925 C164.229355,12.8427628 164.274255,12.6209733 164.323117,12.390604 C165.146278,10.7702967 165.882281,9.11352505 166.499872,7.41857299 C167.480622,4.73050172 169.796918,1.77345172 165.452652,0.828808733" id="Fill-10" fill="#69A1AC"></path>
                        <path d="M191.458696,80.2501154 C186.482788,76.882493 179.865789,76 173.91119,76 C150.653641,76 128.792625,84.612243 109.907279,97.4446709 C99.5590489,104.476045 90.3017729,113.43022 82.1289301,122.753083 C77.4115531,128.134658 73.2051825,133.956572 70.227184,140.431513 C68.2176289,144.801804 66.8383306,149.355304 65.9034263,154.052108 C64.7640263,159.776069 63.8589346,165.616123 63.4494773,171.435316 C63.288303,173.726805 61.9541894,185.886252 65.7715988,186.092137 C65.7497052,186.391895 65.7445811,186.677594 65.7678722,186.933816 C57.4790397,199.869186 52.3577952,215.028929 47.6087424,229.401865 C43.4769033,241.90914 39.7950481,254.522079 37.4049166,267.461077 C34.2582906,284.496004 32.1914394,301.787153 31.2085555,319.066965 C30.9975382,322.7806 30.8526676,326.49605 30.7278274,330.214674 C30.6220859,333.386389 30.5149469,336.558103 30.4106028,339.729817 C30.2941474,343.284278 29.6671513,347.376579 30.2335905,350.910179 C30.7264299,353.987567 33.3951228,353.521832 33.5129757,350.459409 C33.6555172,346.761192 33.6322261,343.055719 33.7943321,339.354781 C34.0100076,334.443022 34.2322046,329.531264 34.4730344,324.620866 C36.1495269,290.509745 42.4390524,256.900184 54.0463991,224.678759 C58.7437458,211.639539 64.1263163,199.295974 71.0442353,187.234027 C77.1264701,176.628692 84.4426668,166.361661 91.9209694,156.799355 C99.1896522,147.506876 106.746679,138.429352 115.652725,130.556299 C122.87995,124.167521 130.829664,118.601829 139.001575,113.422964 C149.381016,106.845534 159.740426,100.427733 170.9835,95.378567 C176.8277,92.754216 182.7823,90.4046804 188.67215,87.8864462 C189.731894,87.433409 190.868034,86.9939764 191.887252,86.4692876 C195.287285,84.7192668 194.167915,82.0835785 191.458696,80.2501154" id="Fill-1" fill="#C1DEE2" transform="translate(112.000000, 214.500000) rotate(13.000000) translate(-112.000000, -214.500000) "></path>
                        <path d="M107.416629,184 C116.873201,184 125.288074,185.230676 134.001266,188.994614 C141.522501,192.243116 148.376803,196.543591 155.031639,201.225584 C164.392433,207.810431 171.765607,215.47438 176.926653,225.628962 C180.010012,231.695358 182.271787,240.279515 180.20113,246.896227 C177.761858,254.689358 171.064404,261.188944 162.243572,259.815738 C156.78904,258.967441 151.788796,255.351201 147.643088,251.947681 C142.683704,247.875858 138.713736,242.979853 135.435744,237.542144 C130.088414,228.672064 126.946182,218.644511 122.403741,209.375689 C120.248289,204.976605 118.16533,200.546086 115.583709,196.36532 C114.305639,194.29496 112.944972,192.244408 111.00612,190.705848 C109.968814,189.882957 105.595083,188.458508 107.267689,186.610342 C82.744483,186.932866 61.0194976,205.79605 56.3118609,229.144871 C55.8733895,231.32116 55.5306964,233.515104 55.1686719,235.704742 C54.9402098,237.087423 55.0324733,242.186244 53.7983388,243.069419 C51.0765647,245.017917 52.2206325,239.098789 52.3374996,238.246617 C52.6393331,236.044061 52.9613768,233.843227 53.299237,231.646269 C55.137478,219.696485 60.4492211,208.587678 69.3073985,200.065528 C79.4370552,190.320454 93.1043591,184 107.416629,184 Z" id="Fill-20" fill="#89C5CC"></path>
                    </g>
                </g>
            </g>
        </g>
    </g>
</svg>