<?xml version="1.0" encoding="utf-8"?>
<!-- Generator: Adobe Illustrator 22.0.1, SVG Export Plug-In . SVG Version: 6.00 Build 0)  -->
<svg version="1.1" id="Calque_1" xmlns="http://www.w3.org/2000/svg" xmlns:xlink="http://www.w3.org/1999/xlink" x="0px" y="0px"
	 viewBox="0 0 163 68" style="enable-background:new 0 0 163 68;" xml:space="preserve">
<style type="text/css">
	.st0{enable-background:new    ;}
	.st1{fill:#262626;}
	.st2{fill:#E7375C;}
</style>
<title>logo final nav</title>
<desc>Created with Sketch.</desc>
<g id="Symbols">
	<g id="Navbar" transform="translate(-370.000000, -16.000000)">
		<g id="logo-final-nav" transform="translate(370.000000, 16.000000)">
			<g class="st0">
				<path class="st1" d="M65.8,41.3c0,0.2-0.1,0.4-0.3,0.6c-0.2,0.2-0.4,0.2-0.7,0.2c-0.4,0-0.7-0.2-0.8-0.6l-1.7-3.9h-9l-1.7,3.9
					c-0.2,0.4-0.4,0.6-0.8,0.6c-0.3,0-0.5-0.1-0.7-0.3s-0.3-0.4-0.3-0.6c0-0.1,0-0.3,0.1-0.4l6.9-15.3c0.1-0.2,0.2-0.4,0.4-0.5
					c0.2-0.1,0.4-0.2,0.6-0.2c0.2,0,0.5,0.1,0.6,0.2s0.3,0.3,0.4,0.5l6.9,15.3C65.7,41,65.8,41.1,65.8,41.3z M53.9,36h7.6l-3.8-8.6
					L53.9,36z"/>
				<path class="st1" d="M78.3,34.7v6.5c0,0.3-0.1,0.5-0.3,0.7s-0.4,0.3-0.7,0.3c-0.3,0-0.5-0.1-0.7-0.3c-0.2-0.2-0.3-0.4-0.3-0.7
					v-6.4c0-1.1-0.2-1.9-0.6-2.4s-1.1-0.7-2-0.7c-1.1,0-1.9,0.3-2.6,1c-0.6,0.7-1,1.5-1,2.7v5.9c0,0.3-0.1,0.5-0.3,0.7
					s-0.4,0.3-0.7,0.3c-0.3,0-0.5-0.1-0.7-0.3c-0.2-0.2-0.3-0.4-0.3-0.7V31c0-0.3,0.1-0.5,0.3-0.7c0.2-0.2,0.4-0.3,0.7-0.3
					c0.3,0,0.5,0.1,0.7,0.3c0.2,0.2,0.3,0.4,0.3,0.7v1.2c0.4-0.7,0.9-1.3,1.6-1.6c0.7-0.4,1.5-0.6,2.4-0.6
					C76.9,30,78.3,31.6,78.3,34.7z"/>
				<path class="st1" d="M83.8,41.4c-0.8-0.5-1.5-1.2-1.9-2.1c-0.5-0.9-0.7-2-0.7-3.2c0-1.2,0.2-2.3,0.7-3.2c0.5-0.9,1.1-1.6,2-2.2
					c0.8-0.5,1.8-0.8,2.9-0.8c0.6,0,1.2,0.1,1.8,0.3s1.1,0.4,1.6,0.7c0.3,0.2,0.5,0.4,0.6,0.6c0.1,0.2,0.2,0.4,0.2,0.6
					c0,0.2-0.1,0.4-0.2,0.6c-0.1,0.1-0.3,0.2-0.5,0.2c-0.1,0-0.2,0-0.4-0.1c-0.1-0.1-0.2-0.1-0.3-0.2c-0.1-0.1-0.1-0.1-0.2-0.1
					c-0.4-0.3-0.8-0.5-1.2-0.6c-0.4-0.2-0.8-0.2-1.4-0.2c-1.2,0-2.1,0.4-2.7,1.2s-1,1.9-1,3.3c0,1.4,0.3,2.5,1,3.3
					c0.6,0.8,1.6,1.2,2.7,1.2c0.5,0,1-0.1,1.4-0.2c0.4-0.2,0.8-0.4,1.2-0.6c0.2-0.1,0.3-0.2,0.5-0.3c0.2-0.1,0.3-0.1,0.4-0.1
					c0.2,0,0.3,0.1,0.4,0.2C91,39.6,91,39.8,91,40c0,0.2-0.1,0.4-0.2,0.6s-0.3,0.4-0.6,0.6c-0.4,0.3-1,0.5-1.6,0.7
					c-0.6,0.2-1.3,0.3-1.9,0.3C85.6,42.2,84.7,41.9,83.8,41.4z"/>
				<path class="st1" d="M102.9,39.5c0.1,0.1,0.2,0.3,0.2,0.6c0,0.4-0.3,0.8-0.8,1.1c-0.6,0.3-1.2,0.6-1.8,0.8s-1.3,0.3-1.9,0.3
					c-1.8,0-3.2-0.5-4.3-1.6c-1-1.1-1.6-2.6-1.6-4.4c0-1.2,0.2-2.3,0.7-3.2s1.1-1.6,2-2.1c0.8-0.5,1.8-0.8,2.9-0.8
					c1.5,0,2.7,0.5,3.6,1.5c0.9,1,1.3,2.3,1.3,4c0,0.3-0.1,0.6-0.2,0.7c-0.1,0.1-0.3,0.2-0.6,0.2h-7.7c0.1,2.8,1.4,4.1,3.9,4.1
					c0.6,0,1.2-0.1,1.6-0.3c0.4-0.2,0.9-0.4,1.4-0.7c0.4-0.2,0.7-0.4,0.8-0.4C102.6,39.3,102.8,39.4,102.9,39.5z M95.8,32.5
					c-0.6,0.6-1,1.5-1.1,2.7h6.8c0-1.2-0.3-2.1-0.9-2.7s-1.3-0.9-2.4-0.9C97.2,31.5,96.4,31.9,95.8,32.5z"/>
				<path class="st1" d="M107.9,41.9c-0.7-0.2-1.3-0.4-1.8-0.7c-0.3-0.2-0.5-0.4-0.6-0.5c-0.1-0.2-0.2-0.4-0.2-0.6
					c0-0.2,0.1-0.4,0.2-0.5c0.1-0.1,0.3-0.2,0.5-0.2s0.5,0.1,0.8,0.4c0.5,0.3,1,0.5,1.4,0.7c0.5,0.2,1.1,0.3,1.8,0.3
					c0.9,0,1.5-0.2,2-0.5s0.7-0.7,0.7-1.3c0-0.4-0.1-0.6-0.3-0.9s-0.5-0.4-0.9-0.6s-1.1-0.3-1.9-0.5c-1.4-0.3-2.4-0.7-3-1.2
					c-0.6-0.5-0.9-1.2-0.9-2.1c0-0.7,0.2-1.3,0.6-1.8c0.4-0.5,0.9-0.9,1.6-1.2c0.7-0.3,1.5-0.5,2.3-0.5c0.6,0,1.2,0.1,1.8,0.3
					c0.6,0.2,1.1,0.4,1.5,0.7c0.5,0.4,0.8,0.8,0.8,1.2c0,0.2-0.1,0.4-0.2,0.5c-0.1,0.1-0.3,0.2-0.5,0.2c-0.2,0-0.5-0.1-0.9-0.4
					c-0.4-0.3-0.9-0.5-1.3-0.7c-0.4-0.2-0.9-0.2-1.5-0.2c-0.8,0-1.4,0.2-1.8,0.5s-0.7,0.8-0.7,1.3c0,0.4,0.1,0.6,0.3,0.9
					c0.2,0.2,0.4,0.4,0.8,0.6c0.4,0.2,1,0.3,1.7,0.5c1.1,0.2,1.9,0.5,2.5,0.8c0.6,0.3,1,0.6,1.3,1.1c0.3,0.4,0.4,0.9,0.4,1.6
					c0,1-0.4,1.8-1.3,2.4c-0.8,0.6-2,0.9-3.4,0.9C109.2,42.2,108.5,42.1,107.9,41.9z"/>
				<path class="st1" d="M122.2,41.8c-0.2-0.2-0.3-0.4-0.3-0.7V26.8h-5.2c-0.3,0-0.5-0.1-0.7-0.2c-0.2-0.1-0.2-0.4-0.2-0.6
					c0-0.3,0.1-0.5,0.2-0.6c0.2-0.1,0.4-0.2,0.7-0.2h12.3c0.3,0,0.5,0.1,0.7,0.2c0.2,0.1,0.2,0.4,0.2,0.6c0,0.3-0.1,0.5-0.2,0.6
					c-0.2,0.1-0.4,0.2-0.7,0.2h-5.2v14.4c0,0.3-0.1,0.5-0.3,0.7s-0.4,0.3-0.7,0.3S122.4,42,122.2,41.8z"/>
				<path class="st1" d="M136.9,30.9c0,0.3-0.1,0.5-0.2,0.6c-0.1,0.2-0.4,0.2-0.7,0.3l-0.7,0.1c-1.1,0.1-1.9,0.5-2.4,1.1
					s-0.8,1.4-0.8,2.3v5.8c0,0.3-0.1,0.6-0.3,0.7c-0.2,0.2-0.4,0.2-0.7,0.2c-0.3,0-0.5-0.1-0.7-0.3c-0.2-0.2-0.3-0.4-0.3-0.7V31
					c0-0.3,0.1-0.5,0.3-0.7c0.2-0.2,0.4-0.3,0.7-0.3c0.3,0,0.5,0.1,0.6,0.3s0.3,0.4,0.3,0.7v1.3c0.3-0.7,0.8-1.2,1.4-1.6
					c0.6-0.4,1.3-0.6,2.1-0.6l0.3,0C136.5,30,136.9,30.3,136.9,30.9z"/>
				<path class="st1" d="M147.8,39.5c0.1,0.1,0.2,0.3,0.2,0.6c0,0.4-0.3,0.8-0.8,1.1c-0.6,0.3-1.2,0.6-1.8,0.8s-1.3,0.3-1.9,0.3
					c-1.8,0-3.2-0.5-4.3-1.6c-1-1.1-1.6-2.6-1.6-4.4c0-1.2,0.2-2.3,0.7-3.2s1.1-1.6,2-2.1c0.8-0.5,1.8-0.8,2.9-0.8
					c1.5,0,2.7,0.5,3.6,1.5c0.9,1,1.3,2.3,1.3,4c0,0.3-0.1,0.6-0.2,0.7c-0.1,0.1-0.3,0.2-0.6,0.2h-7.7c0.1,2.8,1.4,4.1,3.9,4.1
					c0.6,0,1.2-0.1,1.6-0.3c0.4-0.2,0.9-0.4,1.4-0.7c0.4-0.2,0.7-0.4,0.8-0.4C147.5,39.3,147.7,39.4,147.8,39.5z M140.7,32.5
					c-0.6,0.6-1,1.5-1.1,2.7h6.8c0-1.2-0.3-2.1-0.9-2.7s-1.3-0.9-2.4-0.9C142.1,31.5,141.3,31.9,140.7,32.5z"/>
				<path class="st1" d="M160.5,39.5c0.1,0.1,0.2,0.3,0.2,0.6c0,0.4-0.3,0.8-0.8,1.1c-0.6,0.3-1.2,0.6-1.8,0.8
					c-0.6,0.2-1.3,0.3-1.9,0.3c-1.8,0-3.2-0.5-4.3-1.6c-1-1.1-1.6-2.6-1.6-4.4c0-1.2,0.2-2.3,0.7-3.2c0.5-0.9,1.1-1.6,2-2.1
					c0.8-0.5,1.8-0.8,2.9-0.8c1.5,0,2.7,0.5,3.6,1.5c0.9,1,1.3,2.3,1.3,4c0,0.3-0.1,0.6-0.2,0.7c-0.1,0.1-0.3,0.2-0.6,0.2h-7.7
					c0.1,2.8,1.4,4.1,3.9,4.1c0.6,0,1.2-0.1,1.6-0.3s0.9-0.4,1.4-0.7c0.4-0.2,0.7-0.4,0.8-0.4C160.2,39.3,160.3,39.4,160.5,39.5z
					 M153.3,32.5c-0.6,0.6-1,1.5-1.1,2.7h6.8c0-1.2-0.3-2.1-0.9-2.7c-0.6-0.6-1.3-0.9-2.4-0.9C154.8,31.5,154,31.9,153.3,32.5z"/>
			</g>
			<g id="logo">
				<g id="Rectangle">
					<g id="Shape">
						<path class="st2" d="M9.2,50.5c-5,0-9.2-4.1-9.2-9.2V9.2C0,4.1,4.1,0,9.2,0s9.2,4.1,9.2,9.2v32.1
							C18.3,46.3,14.2,50.5,9.2,50.5z M9.2,1.5C5,1.5,1.5,5,1.5,9.2v32.1c0,4.2,3.4,7.6,7.6,7.6s7.6-3.4,7.6-7.6V9.2
							C16.8,5,13.4,1.5,9.2,1.5z"/>
					</g>
				</g>
				<g id="Path-3" transform="translate(8.409611, 0.764510)">
					<g id="Path">
						<path class="st2" d="M0.8,66.5c-0.5,0-0.8-0.3-0.8-0.8v-65C0,0.3,0.3,0,0.8,0s0.8,0.3,0.8,0.8v65C1.5,66.2,1.2,66.5,0.8,66.5z
							"/>
					</g>
				</g>
				<g id="Path-4" transform="translate(0.764510, 22.170793)">
					<g id="Path_1_">
						<path class="st2" d="M7.6,12.2C7.3,5.1,4.9,1.7,0,1.7V0.2c5.8,0,8.9,4.1,9.2,11.9L7.6,12.2z"/>
					</g>
				</g>
				<g id="Path-5" transform="translate(8.409611, 12.232161)">
					<g id="Path_2_">
						<path class="st2" d="M1.5,9.1L0,8.9c0.7-5.5,3.8-8.3,9.4-8.3v1.5C4.7,2.2,2.1,4.4,1.5,9.1z"/>
					</g>
				</g>
				<g id="Path-3_1_" transform="translate(25.228833, 19.877262)">
					<g id="Path_3_">
						<path class="st2" d="M1,47.3c-0.5,0-0.8-0.3-0.8-0.8V1.5C0.2,1,0.5,0.7,1,0.7S1.8,1,1.8,1.5v45.1C1.8,46.9,1.4,47.3,1,47.3z"
							/>
					</g>
				</g>
				<g id="Path-5_1_" transform="translate(17.583732, 12.232161)">
					<g id="Path_4_">
						<path class="st2" d="M7.9,9.1C7.3,4.4,4.7,2.2,0,2.2V0.7c5.5,0,8.7,2.8,9.4,8.3L7.9,9.1z"/>
					</g>
				</g>
				<g id="Path-6" transform="translate(8.409611, 40.519035)">
					<g id="Path_5_">
						<path class="st2" d="M1.5,9.6L0,9.1c2.3-5.9,5.4-8.9,9.1-8.9v1.5C6.1,1.8,3.5,4.4,1.5,9.6z"/>
					</g>
				</g>
				<g id="Path-6_1_" transform="translate(17.583732, 40.519035)">
					<g id="Path_6_">
						<path class="st2" d="M8,9.6c-2-5.3-4.6-8-7.7-8V0.2c3.8,0,6.9,3,9.1,8.9L8,9.6z"/>
					</g>
				</g>
			</g>
		</g>
	</g>
</g>
</svg>
