<?xml version="1.0" encoding="utf-8"?>
<!-- Generator: Adobe Illustrator 22.0.1, SVG Export Plug-In . SVG Version: 6.00 Build 0)  -->
<svg version="1.1" id="Calque_1" xmlns="http://www.w3.org/2000/svg" xmlns:xlink="http://www.w3.org/1999/xlink" x="0px" y="0px"
	 viewBox="0 0 36 88" style="enable-background:new 0 0 36 88;" xml:space="preserve">
<style type="text/css">
	.st0{fill:#E7375C;}
</style>
<title>Group</title>
<desc>Created with Sketch.</desc>
<g id="Symbols">
	<g id="logo-logo">
		<g id="Group">
			<g id="Rectangle">
				<path class="st0" d="M12,66C5.4,66,0,60.6,0,54V12C0,5.4,5.4,0,12,0s12,5.4,12,12v42C24,60.6,18.6,66,12,66z M12,2
					C6.5,2,2,6.5,2,12v42c0,5.5,4.5,10,10,10s10-4.5,10-10V12C22,6.5,17.5,2,12,2z"/>
			</g>
			<g id="Path-3">
				<path class="st0" d="M12,88c-0.6,0-1-0.4-1-1V2c0-0.6,0.4-1,1-1s1,0.4,1,1v85C13,87.6,12.6,88,12,88z"/>
			</g>
			<g id="Path-4">
				<path class="st0" d="M11,44.9c-0.4-9.2-3.6-13.7-10-13.7v-2c7.6,0,11.6,5.3,12,15.6L11,44.9z"/>
			</g>
			<g id="Path-5">
				<path class="st0" d="M13,27.9l-2-0.2c0.9-7.2,5-10.8,12.3-10.8v2C17.1,18.9,13.7,21.8,13,27.9z"/>
			</g>
			<g id="Path-3_1_">
				<path class="st0" d="M34.3,87.9c-0.6,0-1-0.4-1-1v-59c0-0.6,0.4-1,1-1s1,0.4,1,1v59C35.3,87.4,34.8,87.9,34.3,87.9z"/>
			</g>
			<g id="Path-5_1_">
				<path class="st0" d="M33.3,27.9c-0.8-6.1-4.1-9-10.3-9v-2c7.2,0,11.4,3.6,12.3,10.8L33.3,27.9z"/>
			</g>
			<g id="Path-6">
				<path class="st0" d="M12.9,65.6l-1.9-0.7c3-7.7,7-11.6,11.9-11.6v2C19,55.3,15.6,58.8,12.9,65.6z"/>
			</g>
			<g id="Path-6_1_">
				<path class="st0" d="M33.5,65.6c-2.6-6.9-6-10.4-10.1-10.4v-2c5,0,9,3.9,11.9,11.6L33.5,65.6z"/>
			</g>
		</g>
	</g>
</g>
</svg>
