<?xml version="1.0" encoding="UTF-8"?>
<svg width="266px" height="721px" viewBox="0 0 266 721" version="1.1" xmlns="http://www.w3.org/2000/svg" xmlns:xlink="http://www.w3.org/1999/xlink">
    <!-- Generator: Sketch 55.1 (78136) - https://sketchapp.com -->
    <title>right leaf</title>
    <desc>Created with Sketch.</desc>
    <g id="Page-1" stroke="none" stroke-width="1" fill="none" fill-rule="evenodd" opacity="0.4">
        <g id="Accueil" transform="translate(-1654.000000, -131.000000)">
            <g id="First-section" transform="translate(-13.000000, 0.000000)">
                <g id="right-leaf" transform="translate(1655.000000, 86.000000)">
                    <g id="Corner-Plants">
                        <path d="M190.716721,208.509825 C196.732884,203.629717 203.575049,199.731348 210.203409,195.767033 C220.849848,189.399597 231.320791,185.132113 243.762039,185.475982 C263.995419,186.03457 282.238166,192.867025 298.855611,203.725859 C307.517545,209.385906 315.872319,216.025501 322.435261,224.066306 C325.355801,227.645545 328.032972,231.41639 330.622971,235.241171 C332.223721,237.603675 333.743345,240.01779 335.240967,242.447172 C336.142111,243.909943 338.071444,245.985264 338.149189,247.775917 C338.242593,249.92745 335.904828,251.57084 333.973036,250.525994 C332.327503,249.636721 331.316737,246.893715 330.321113,245.34757 C328.030726,241.788833 325.562113,238.361762 323.010213,234.989346 C319.025239,229.724921 314.71619,224.976299 309.711786,220.691073 C299.569479,212.006954 287.63067,204.935594 275.284552,199.808971 C273.771119,211.822758 266.891392,220.726241 256.513245,226.751522 C241.738986,235.329139 226.924012,239.696171 209.90779,238.442301 C198.856593,237.628349 189.880757,232.670711 181.912725,225.332208 C180.405905,223.944575 178.498943,221.795618 179.106196,219.49771 C179.690365,217.285629 182.560269,215.535778 184.182391,214.074147 C186.310916,212.157219 188.492472,210.31406 190.716721,208.509825 Z" id="Fill-16" fill="#DDE3E9" transform="translate(258.571167, 218.152724) rotate(-30.000000) translate(-258.571167, -218.152724) "></path>
                        <path d="M210.239311,238.454697 C207.933396,219.994942 205.491281,201.641045 201.007892,183.542046 C198.365243,172.876538 194.975618,162.436202 191.896814,151.892357 C192.172456,153.215071 192.416247,154.546332 192.627678,155.881131 C191.556052,152.736551 189.314835,149.729827 188.026974,146.596466 C186.590493,143.101929 185.436099,139.471837 184.339724,135.863241 C182.199203,128.820392 180.179903,121.765408 177.770183,114.803481 C175.084861,107.047022 171.991624,99.419718 169.109531,91.7315885 C166.663467,85.2066725 164.373316,78.3558875 161.186886,72.1298028 C159.450371,68.7362609 157.893843,65.0909944 156.189231,61.6317769 C155.618634,60.4741965 150.725374,47.5411267 150.762353,47.5410936 C151.573328,47.5403663 154.609702,53.2885155 155.112785,54.1329555 C156.583061,56.59916 157.831884,59.1657874 159.094057,61.7374142 C159.642759,58.6820844 160.509835,55.6906127 161.873912,52.8811036 C162.294816,52.0137857 165.249652,45.6178256 166.210085,45.6169643 C166.689788,45.6165341 162.246057,57.6935424 161.684767,58.753918 C161.228944,59.6152538 160.375387,60.7074623 160.077703,61.6237796 C159.596671,63.1035222 159.844045,62.7334726 160.238832,64.0676055 C160.962352,66.5129315 162.566229,68.9068547 163.574884,71.2547074 C164.128446,72.5080173 165.491746,76.8525218 166.820222,78.7976869 C170.239419,85.4780802 172.66605,93.6251445 175.267124,100.829944 C175.831157,97.2885122 176.803901,93.8734979 178.149959,90.5403328 C178.469102,89.7487755 181.009802,82.4045635 181.739628,82.403909 C182.560875,82.4031725 179.405537,94.1648221 178.977309,95.1809797 C178.182101,97.0684159 176.932926,98.8956235 176.271224,100.816515 C175.545154,102.924884 176.815638,104.820991 177.624162,106.976092 C180.598487,114.904677 183.205003,122.912769 185.585951,131.028805 C199.461176,124.952288 202.235243,107.102352 203.15203,93.9400709 C203.812311,84.4537468 202.350037,74.795437 200.052238,65.5959016 C196.985777,53.3181642 191.818823,41.4667605 186.335608,30.0571285 C179.946556,16.7625882 171.154632,4.89138372 160.550435,-5.5119135 C155.004336,-10.95313 148.68667,-15.6675293 142.269612,-20.0846743 C139.134996,-22.2426998 135.914279,-24.0333259 132.253902,-25.2322341 C130.603677,-25.7719656 128.909661,-26.1623236 127.197074,-26.4609596 C125.895815,-26.687803 123.241584,-27.8901192 122.162234,-27.5819636 C113.348721,-25.1406129 106.721695,-21.0871101 101.579959,-13.5581572 C96.7123337,-6.43134978 93.6872823,2.08642238 92.0023595,10.4411304 C90.1265524,19.7446329 89.6676997,29.1235364 91.2622364,38.4835602 C92.4787023,45.6249563 94.5817684,52.6252433 96.6879778,59.5568738 C104.178769,84.2108542 117.32373,110.637744 140.940787,124.144343 C148.585389,128.51679 157.069821,131.06891 165.780804,132.418136 C167.833378,132.736011 169.883911,133.038353 171.961319,133.153251 C173.361836,133.231172 177.967097,132.298464 178.979889,132.900405 C180.368435,133.725509 181.162359,138.412791 181.766367,140.112054 C186.355592,153.027356 190.458307,166.089421 194.179825,179.26859 C198.138896,193.290433 201.281221,207.449313 203.89645,221.766519 C205.008572,227.856155 206.091942,233.935793 207.01349,240.058674 C207.228436,241.48317 207.000994,245.964404 208.392748,247.221472 C209.272857,248.016464 210.518118,247.689117 211.042865,246.714466 C211.955514,245.019856 210.47541,240.344716 210.239311,238.454697" id="Leaf" fill="#C1DEE2" transform="translate(150.814803, 110.017783) rotate(-67.000000) translate(-150.814803, -110.017783) "></path>
                        <path d="M220.394433,147.476088 C219.922124,146.931322 209.707061,142.352383 210.29945,141.401994 C210.553826,140.993889 214.458471,142.853685 214.982679,143.131145 C217.056072,144.22956 218.822069,145.769267 220.394433,147.476088 Z M238.907439,136.075002 C238.894574,136.147024 240.248581,138.450214 240.617133,139.158384 C241.401733,140.663839 242.126107,142.198898 242.807554,143.73655 C241.798647,141.020448 240.762086,138.501368 238.907439,136.075002 Z M144.226035,154.822575 C142.922063,155.243592 141.354279,153.584258 143.045667,153.175544 C144.414236,152.84748 144.347119,152.770135 144.961631,151.665001 C145.460629,150.767593 145.768047,149.673068 146.205926,148.731335 C147.13473,146.733855 148.188296,144.828929 149.481541,143.043954 C152.253167,139.217458 155.630143,135.920201 159.417671,133.141635 C166.027613,128.293037 173.43898,123.861475 181.300802,121.635079 C193.801209,118.095011 208.028379,117.875945 220.548345,120.330756 C228.302281,121.850701 235.388555,124.493115 240.537314,130.752038 C243.110756,133.879751 245.130705,137.544197 246.013748,141.579177 C246.244222,142.633953 246.201123,143.806731 246.489584,144.839306 C246.933017,146.426947 246.737381,146.004334 248.589641,146.313237 C250.612194,146.650318 252.632943,146.99463 254.653253,147.344705 C259.9429,148.262 265.263515,149.235854 270.417703,150.724617 C272.114136,151.214134 273.773257,151.812658 275.393909,152.508315 C276.619719,153.033737 281.500732,154.68395 282.093722,156.280276 C283.081113,158.936524 279.77312,157.732427 278.745223,157.154013 C277.844837,156.647117 276.920437,156.174412 275.98255,155.739243 C273.621033,154.643585 271.1606,153.796242 268.644675,153.121764 C265.925849,152.392642 263.151302,151.848319 260.387538,151.303319 C257.810035,150.795571 255.223027,150.333427 252.63262,149.891914 C251.193631,149.646347 249.753371,149.407879 248.31311,149.169411 C247.82109,149.087866 246.953343,148.660869 247.019005,149.302122 C243.99102,148.717018 240.716444,148.801447 237.632097,148.639952 C233.854277,148.442576 230.062507,148.280588 226.272069,148.399057 C223.538306,148.484584 220.802149,148.664295 218.08226,149.032562 C216.492942,149.247889 214.928998,149.562719 213.369646,149.961247 C212.513135,150.180427 209.135519,150.644824 208.668898,151.39344 C208.869414,151.071745 212.597081,151.383554 213.071524,151.365371 C214.969322,151.294049 216.852248,151.10565 218.743016,150.89383 C222.251778,150.500902 225.762045,150.295643 229.281552,150.32563 C229.268187,150.944783 226.864003,152.048231 226.277102,152.458598 C224.961207,153.379369 223.700883,154.383722 222.525103,155.485163 C220.453692,157.425061 217.973567,159.828421 216.540805,162.127049 C216.963075,161.449587 219.04603,160.568061 219.785273,160.050608 C220.969512,159.221083 222.129538,158.336444 223.227309,157.390511 C224.240673,156.517116 225.186297,155.573881 226.11609,154.61051 C227.045976,153.646269 228.307907,151.641947 229.529772,150.999957 C229.603515,150.961151 230.136121,151.383044 230.438662,151.239526 C230.74354,151.09515 231.123597,150.372664 231.20102,150.34313 C232.33838,149.903208 234.498437,150.450445 235.694127,150.505979 C238.794948,150.648995 241.892766,150.83658 244.991484,151.007542 C245.951467,151.060342 246.767158,150.841603 247.129788,151.55137 C247.516074,152.308471 246.808166,154.298477 246.606789,155.123138 C245.859681,158.185712 244.532658,160.931924 242.443832,163.3045 C238.532022,167.748906 233.708387,170.711718 228.259097,172.693627 C207.387043,180.284806 185.181894,183.324975 164.316138,175.42844 C155.677786,172.158872 142.668338,166.31694 144.226035,154.822575 Z" id="Leave-the-Leaf!" fill="#89C5CC" transform="translate(212.291430, 149.382142) rotate(-30.000000) translate(-212.291430, -149.382142) "></path>
                    </g>
                    <g id="Corner-Plants" transform="translate(208.500000, 726.250000) scale(-1, 1) translate(-208.500000, -726.250000) translate(83.000000, 592.250000)">
                        <path d="M144.888685,0.687038818 C141.322692,-0.088908244 137.385287,-0.0295209116 133.752892,0.0344893868 C114.27237,0.298354061 95.1428285,9.48489872 82.6928652,24.163527 C72.0941244,36.6597597 69.1797443,52.1961259 67.0859001,67.9014083 C66.8783034,69.4607703 66.7892813,71.0101751 66.6721661,72.5727376 C66.6469918,72.9080804 66.6094128,73.2071508 66.5692798,73.4887961 C65.7458252,74.2220696 65.313849,75.0769627 65.8012816,76.016136 C63.9872733,79.9701944 62.4527362,84.0245356 61.1360114,88.2061861 C57.2606301,100.514655 53.3184823,113.057118 55.7468891,126 C56.3142228,118.877432 57.50763,111.594127 58.9349028,104.588555 C59.0169929,104.186357 59.1056502,103.78736 59.1979559,103.389785 C59.2074419,103.347822 59.2161981,103.30586 59.2256841,103.264253 C59.7309941,101.118841 60.3877147,99.0377955 61.18636,96.9894659 C61.1947514,96.9670623 61.202778,96.9450143 61.2115342,96.9229663 C61.3169744,96.6534119 61.4289817,96.3852798 61.5395297,96.1171478 C61.7682874,95.5620363 62.0032474,95.0079916 62.2524364,94.4567918 C62.3367155,94.2690282 62.4177111,94.0794866 62.495423,93.8885226 C63.6581833,91.0500215 64.1492644,87.8516402 65.1908963,84.9146344 C65.4400853,84.2467936 65.7005844,83.5814421 65.9734883,82.9196467 C65.9895415,82.8808849 66.0059595,82.8421231 66.0223775,82.8033613 C66.7600937,81.0224526 67.5751569,79.2632362 68.4369203,77.5225117 C68.905381,77.1718775 69.1556645,76.3020487 69.5595477,75.5115215 C69.6430971,75.3557631 70.2961693,74.3170182 70.4906316,73.7185219 C70.9981306,72.7405868 71.5038055,71.7622961 72.014953,70.786139 C71.9996296,70.7918289 71.9843061,70.7975187 71.9689826,70.8032085 C72.480495,69.8658132 72.9934667,68.9323297 73.5024252,68.0027579 C73.6144326,67.7986362 73.7275344,67.5941588 73.8402715,67.3893259 C74.0230587,67.063229 74.205846,66.7374877 74.3882683,66.4124576 C76.0946474,63.3709016 77.9039126,60.3901554 79.7828633,57.4463929 C80.453448,56.3959127 82.0554814,54.8895371 82.3626807,53.7099695 C82.3739909,53.6658735 82.3765448,53.6253337 82.3834769,53.5830157 C86.4606173,47.8793425 91.1543454,42.6184072 96.7831707,38.4499144 C96.1027352,39.1824767 94.6564904,41.6685655 94.2741331,42.1607336 C93.1040759,43.6678205 91.8336864,45.0707129 90.5585539,46.4906747 C88.2749904,49.0343728 86.0454239,51.658795 84.0643168,54.4339971 C80.4414081,59.5093025 77.3157829,64.8506063 74.3612698,70.2993052 C74.3331768,70.3313103 74.3025298,70.3615374 74.2758961,70.3942538 C72.7909779,72.2174804 71.8562456,74.9731238 70.7872504,77.0587927 C75.0176256,75.1071898 79.6953005,73.8358742 84.0369534,72.1029731 C88.3665664,70.3754063 92.5783346,68.4515412 96.6445297,66.1923333 C102.048975,63.1898947 107.65518,59.7998382 112.761548,55.9634876 C118.613293,52.3479726 123.530671,47.3715275 127.87123,42.149354 C133.006785,35.9705821 137.713282,29.7377571 140.624014,22.2353945 C142.053841,18.548757 143.178657,14.7045829 143.845593,10.8156017 C143.874781,10.6459744 143.911995,10.4621226 143.952493,10.2711586 C144.634753,8.92800912 145.244773,7.55463261 145.75665,6.14960656 C146.569525,3.92133695 148.489338,1.47009813 144.888685,0.687038818" id="Fill-10" fill="#69A1AC"></path>
                        <path d="M246.868866,90.0960171 C247.655916,92.6912022 246.999334,94.975003 243.894024,94.3312656 C242.963107,94.1383525 242.001428,93.8294853 241.081855,93.569223 C235.970874,92.1229576 230.906362,90.534112 225.769322,89.1800999 C215.886453,86.5755338 205.857471,85.3145403 195.732142,84.1460761 C187.760119,83.2263444 179.729043,82.6719883 171.733191,83.0252567 C161.879858,83.4607267 152.266038,85.376488 142.725624,87.5812404 C132.909114,89.8507643 122.828662,92.6594018 113.366366,96.3296036 C102.604255,100.503737 92.6841042,105.659998 82.8417802,111.622252 C58.5204755,126.355853 36.8996378,144.757381 17.9886352,165.887484 C15.266666,168.92949 12.5559901,171.982087 9.84951587,175.038085 C7.81048632,177.340944 5.88853109,179.743386 3.86352859,182.054691 C2.18678051,183.968733 0.223981395,182.877826 1.5151045,180.635742 C2.99728521,178.060997 5.54040404,175.748054 7.4734544,173.515883 C9.19862901,171.524297 10.9256043,169.534168 12.6516792,167.543311 C14.6759448,165.209614 16.7114559,162.888408 18.7886348,160.602858 C28.4545438,149.968556 38.8247414,139.892073 49.7566652,130.543819 C58.0601423,123.443334 67.0253908,117.22663 76.2253148,111.312687 C86.7981245,104.517046 98.0220114,97.4079025 110.123919,93.3850816 C110.242849,93.2076566 110.395493,93.0260313 110.566291,92.8440804 C108.214489,90.72104 115.430117,83.5728605 116.731785,82.1787128 C120.037449,78.6383831 123.673338,75.3429988 127.399498,72.2446614 C130.456983,69.7022995 133.725867,67.4840661 137.305034,65.7126048 C142.608298,63.0883948 148.361604,61.5258538 154.213954,60.5137801 C164.352769,58.7608172 174.997521,57.8110607 185.340033,58.6704263 C204.215093,60.2385678 222.801257,66.0804189 237.785283,78.2058842 C241.621624,81.3103511 245.423419,85.3294357 246.868866,90.0960171 Z" id="Fill-1" fill="#C1DEE2"></path>
                        <path d="M96.9657311,110 C104.809555,110 111.789333,111.020165 119.016554,114.140272 C125.255098,116.833109 130.940449,120.397977 136.460352,124.279103 C144.224731,129.737594 150.340465,136.090605 154.621332,144.508218 C157.178847,149.536941 159.054893,156.652755 157.337371,162.137661 C155.314099,168.597757 149.758847,173.985572 142.442342,172.847256 C137.918041,172.144063 133.770552,169.14639 130.331864,166.325051 C126.218266,162.949725 122.925347,158.891194 120.206393,154.383619 C115.77101,147.03079 113.164662,138.718476 109.396901,131.035111 C107.609046,127.388501 105.88132,123.715834 103.739975,120.250199 C102.679871,118.53398 101.551256,116.83418 99.9430605,115.558795 C99.0826597,114.876662 95.4548366,113.695869 96.842192,112.163836 C76.5012378,112.431192 58.4812887,128.067779 54.5765048,147.422722 C54.2128114,149.226751 53.9285621,151.045415 53.6282782,152.86051 C53.4387787,154.006679 53.5153073,158.233334 52.4916454,158.96544 C50.2340498,160.580642 51.1830052,155.673996 51.2799415,154.967591 C51.5302996,153.141787 51.7974211,151.317412 52.0776617,149.496249 C53.6024042,139.590507 58.0082687,130.381891 65.3557491,123.317477 C73.7578675,115.239324 85.0943134,110 96.9657311,110 Z" id="Fill-20" fill="#89C5CC"></path>
                    </g>
                </g>
            </g>
        </g>
    </g>
</svg>